<?xml version="1.0" encoding="UTF-8"?>
<svg version="1.1" xmlns="http://www.w3.org/2000/svg" width="700" height="700">
<path d="M0 0 C231 0 462 0 700 0 C700 231 700 462 700 700 C469 700 238 700 0 700 C0 469 0 238 0 0 Z " fill="#040404" transform="translate(0,0)"/>
<path d="M0 0 C78.21 0 156.42 0 237 0 C235.68 1.32 234.36 2.64 233 4 C232.70043928 6.82767798 232.70043928 6.82767798 233.19995117 9.95043945 C233.33004074 11.16140793 233.46013031 12.3723764 233.59416199 13.62004089 C233.70694016 14.59269425 233.70694016 14.59269425 233.82199669 15.58499718 C239.21999193 65.13274412 239.21999193 65.13274412 224.55378723 83.41368103 C213.59211929 96.27142217 200.35544511 107.28891954 186.89782715 117.43276978 C184.89609325 118.87039534 184.89609325 118.87039534 184 121 C183.92422498 122.86368944 183.91491905 124.73021141 183.93598938 126.59532166 C183.95165451 128.38043655 183.95165451 128.38043655 183.96763611 130.20161438 C183.98387527 131.51429794 184.00011444 132.82698151 184.0168457 134.17944336 C184.03711107 136.29390635 184.05547043 138.40838121 184.07382143 140.5228616 C184.08700888 142.02575989 184.10079543 143.52865302 184.11513484 145.03154075 C184.20579521 154.68433939 184.22373749 164.33739656 184.24606192 173.99055278 C184.26837177 183.38900611 184.31301507 192.78602366 184.4284668 202.18383789 C184.52002566 209.64778111 184.56174255 217.11014094 184.54560155 224.57465464 C184.53888814 228.5229122 184.55669201 232.46751807 184.63485146 236.41508293 C185.12455035 262.36526013 185.12455035 262.36526013 179.91732788 268.32571411 C176.58341271 271.28616873 173.02389405 273.12296946 169 275 C166.75238952 276.63239236 166.75238952 276.63239236 165.0625 278.1875 C164.54300781 278.64640625 164.02351562 279.1053125 163.48828125 279.578125 C147.34794214 294.9982915 136.78061586 314.9545998 130 336 C129.78827148 336.6290625 129.57654297 337.258125 129.35839844 337.90625 C122.78163616 358.25147974 123.21648898 385.78888708 130 406 C130.24669434 406.76763672 130.49338867 407.53527344 130.74755859 408.32617188 C136.65631134 426.44779785 145.23441527 441.0773167 157 456 C154.10556114 461.41743641 150.75624575 465.99152233 146.8125 470.6875 C141.93153459 476.48460556 141.93153459 476.48460556 137.5703125 482.671875 C132.37836705 490.62144716 132.37836705 490.62144716 128.02734375 491.81640625 C125.94811773 491.9375012 123.86395785 491.99361716 121.78125 491.98046875 C117.63184031 492.00960786 114.99100409 493.28090538 112 496 C108.4485058 499.83585574 105.20326056 503.87515452 102 508 C101.58314941 508.53367187 101.16629883 509.06734375 100.73681641 509.6171875 C98.21863867 512.84738811 95.72893245 516.09850954 93.25 519.35888672 C91.59037027 521.53779904 89.92022133 523.70850389 88.24853516 525.87817383 C87.41857522 526.95627783 86.59011432 528.03553757 85.76318359 529.1159668 C83.63265537 531.89723336 81.48097643 534.6574009 79.2890625 537.390625 C71.61695139 547.00650456 67.21626989 553.92063654 67.61328125 566.625 C68.61357395 575.35482716 73.02786051 581.77475854 79.7421875 587.2265625 C90.31212984 595.31876274 98.33894886 600.31536944 112 599 C122.17151436 596.28977306 129.12700553 588.39477191 135.125 580.1875 C136.24906292 578.68289322 137.37409645 577.17901118 138.5 575.67578125 C139.07363281 574.90572754 139.64726562 574.13567383 140.23828125 573.34228516 C143.14556135 569.47692411 146.13998408 565.68041331 149.125 561.875 C153.60235724 556.14206449 158.00827289 550.36420587 162.3125 544.5 C162.77479004 543.87077637 163.23708008 543.24155273 163.71337891 542.59326172 C167.19246531 537.81901178 168.13840355 535.60516617 168.125 529.6875 C168.12757813 528.55699219 168.13015625 527.42648437 168.1328125 526.26171875 C168.16353625 523.08119182 168.16353625 523.08119182 167.13671875 520.5546875 C166.90370339 516.20062908 169.96093363 513.61380927 172.6875 510.4375 C173.50250977 509.4484668 173.50250977 509.4484668 174.33398438 508.43945312 C177.0856047 505.12885793 179.94619721 502.03572033 183 499 C183.00808685 500.09358826 183.01617371 501.18717651 183.02450562 502.31390381 C183.10195095 512.6140633 183.18968624 522.91409045 183.28752708 533.214077 C183.3374979 538.50955327 183.38382796 543.80500951 183.421875 549.10058594 C183.45871775 554.20998545 183.50507511 559.31921774 183.55806351 564.42847443 C183.5766128 566.37889933 183.59171878 568.32936009 183.60334396 570.27983856 C183.62019715 573.00932482 183.64923008 575.73842765 183.68115234 578.46777344 C183.68331253 579.27625732 183.68547272 580.08474121 183.68769836 580.91772461 C183.73548594 586.28013406 183.73548594 586.28013406 186 591 C188.82856959 592.41428479 191.19196187 592.12945562 194.35693169 592.13422108 C195.01988347 592.13657331 195.68283526 592.13892554 196.3658765 592.14134905 C198.60907664 592.14805778 200.85221911 592.14758027 203.09542847 592.14717102 C204.71122645 592.15046847 206.32702361 592.15419378 207.94281971 592.1583125 C212.39999674 592.16835394 216.85716029 592.17205272 221.31434703 592.17470181 C226.11471173 592.17859845 230.91506571 592.18817713 235.71542358 592.19691467 C247.31574471 592.21669587 258.91606673 592.22674679 270.51640052 592.23564246 C275.97404995 592.24002212 281.43169841 592.24538971 286.88934708 592.25063133 C305.02235399 592.26764427 323.15536028 592.28214006 341.28837395 592.28938007 C345.996123 592.29129008 350.70387206 592.2932104 355.41162109 592.29516602 C356.58176184 592.29564976 357.75190259 592.2961335 358.95750214 592.2966319 C377.9274915 592.30493826 396.89741792 592.33028512 415.86737977 592.36274669 C435.32627722 592.39577458 454.78514263 592.41382491 474.24406826 592.41702431 C485.17655471 592.41919324 496.10894934 592.42799771 507.04140854 592.45348549 C516.3488293 592.47513412 525.65613596 592.48327175 534.96357904 592.47351871 C539.71545295 592.46895717 544.46709115 592.47096724 549.21893311 592.49028015 C553.56522456 592.50779287 557.91110628 592.50701181 562.25740136 592.49138286 C563.83345032 592.48898858 565.40952677 592.49342362 566.98553346 592.50521151 C569.12132244 592.5202025 571.25563539 592.51074947 573.39138603 592.49498463 C574.57958596 592.49596144 575.76778589 592.49693824 576.99199188 592.49794465 C580.6137943 591.8983927 581.78683885 590.87155758 584 588 C584.605656 585.87887802 584.605656 585.87887802 584.54589844 583.59863281 C584.57547638 582.3077475 584.57547638 582.3077475 584.60565186 580.99078369 C584.60688049 580.07085632 584.60810913 579.15092896 584.609375 578.203125 C584.62591125 577.25435486 584.64244751 576.30558472 584.65948486 575.32806396 C584.70801439 572.30197712 584.72934695 569.27639299 584.75 566.25 C584.77815551 564.19658922 584.80808235 562.14320192 584.83984375 560.08984375 C584.91377484 555.05993721 584.96331933 550.03031056 585 545 C586.28165039 544.9906543 587.56330078 544.98130859 588.88378906 544.97167969 C593.64016442 544.93179939 598.39589162 544.86604585 603.15185547 544.79248047 C605.21003898 544.76425951 607.2683311 544.74305059 609.32666016 544.72900391 C612.28604785 544.7075901 615.2441282 544.66094779 618.203125 544.609375 C619.12305237 544.60814636 620.04297974 544.60691772 620.99078369 544.60565186 C621.8513739 544.58593323 622.71196411 544.5662146 623.59863281 544.54589844 C624.35364075 544.53701599 625.10864868 544.52813354 625.88653564 544.51898193 C629.02609295 543.7480328 630.04967911 542.58843195 632 540 C632.39185534 536.92934747 632.5372621 534.21860609 632.50336456 531.14807129 C632.51208521 529.78549336 632.51208521 529.78549336 632.52098203 528.3953886 C632.53566534 525.32908264 632.52165785 522.26356673 632.50793457 519.19726562 C632.51254018 516.98576699 632.5188908 514.77427142 632.52684355 512.56278229 C632.54360658 506.46821591 632.53525882 500.37389871 632.52289867 494.27933121 C632.51480454 488.38722356 632.52542385 482.49516977 632.53548814 476.60306954 C632.55657496 463.80439953 632.55471608 451.00580927 632.54317249 438.20713162 C632.53311995 427.00697567 632.53047892 415.80684899 632.53526306 404.60668945 C632.5355686 403.86446304 632.53587414 403.12223662 632.53618894 402.35751849 C632.53743425 399.34476494 632.53870784 396.33201141 632.540028 393.31925789 C632.55227074 365.04318217 632.54115948 336.76715733 632.51964041 308.49108946 C632.50065723 283.35601156 632.50235571 258.2210147 632.52148438 233.0859375 C632.54289155 204.86239121 632.55140258 176.63888989 632.53903532 148.41533661 C632.5377524 145.4079946 632.53650105 142.40065258 632.53526306 139.39331055 C632.53494675 138.65279758 632.53463044 137.91228462 632.53430455 137.14933187 C632.52974996 125.95476687 632.53508449 114.76023433 632.54518127 103.56567383 C632.55660157 90.84006277 632.55379488 78.11454412 632.5320583 65.38894463 C632.52151766 58.89131101 632.51747732 52.39384225 632.53065491 45.89620972 C632.54252225 39.95495299 632.53610998 34.01401486 632.5147447 28.07278728 C632.51025455 25.91672934 632.51259846 23.7606448 632.52224785 21.60460377 C632.53431136 18.68665604 632.52203936 15.76981729 632.50336456 12.85192871 C632.51272923 12.003651 632.52209389 11.15537329 632.53174233 10.28139019 C632.46106515 4.80260181 632.14483639 4.14483639 628 0 C651.76 0 675.52 0 700 0 C700 231 700 462 700 700 C469 700 238 700 0 700 C0 469 0 238 0 0 Z " fill="#FEFEFE" transform="translate(0,0)"/>
<path d="M0 0 C99.99 0 199.98 0 303 0 C303 169.29 303 338.58 303 513 C181.23 513 59.46 513 -66 513 C-66 483.63 -66 454.26 -66 424 C-57 427 -57 427 -53.91015625 428.0625 C-20.77296246 438.97186421 14.40407516 435.43538012 45.4140625 419.83203125 C71.88291342 405.86961906 90.81024034 384.12113586 103 357 C103.48210937 355.94683594 103.96421875 354.89367187 104.4609375 353.80859375 C108.21638962 344.89793008 109.94985434 335.60044234 111.62402344 326.12060547 C111.9248385 324.42393039 112.25452789 322.73238415 112.59375 321.04296875 C115.09616836 302.29889277 112.38102792 283.49451956 105.98828125 265.84375 C105 263 105 263 105 261 C115.58818474 256.00272802 126.18126069 251.01594687 136.78033447 246.04180908 C138.20684805 245.37226911 139.63324917 244.70248943 141.05950928 244.03240967 C145.223542 242.07626334 149.39175062 240.12929958 153.5625 238.1875 C154.59358887 237.70313477 155.62467773 237.21876953 156.68701172 236.71972656 C158.59113869 235.83671731 160.50599637 234.97634342 162.43261719 234.14355469 C164.9705726 233.07020667 164.9705726 233.07020667 167.12207031 231.75488281 C171.16984134 229.70501303 173.30721428 229.77495613 177.67895508 231.19506836 C182.09618619 233.04773618 186.35959216 235.20029535 190.625 237.375 C192.8403809 238.48847978 195.05903203 239.59250465 197.28915405 240.67617798 C198.67064332 241.34891716 200.0437932 242.03915756 201.40640259 242.74935913 C206.05196108 245.03177412 209.01132592 245.2840586 214 244 C217.26288786 242.7739176 217.26288786 242.7739176 220.5234375 241.1484375 C221.1343927 240.85756256 221.7453479 240.56668762 222.37481689 240.26699829 C223.69170893 239.63894113 225.00660147 239.00667726 226.31964111 238.37060547 C229.86566031 236.65293167 233.42611184 234.96555932 236.984375 233.2734375 C237.72148712 232.92182556 238.45859924 232.57021362 239.2180481 232.20794678 C247.97592097 228.03942946 256.81775968 224.05659037 265.66571045 220.0836792 C272.79136975 216.88316936 279.88633035 213.63102301 286.8984375 210.1875 C288.04747559 209.62417969 289.19651367 209.06085938 290.38037109 208.48046875 C293.10017012 207.26519828 293.10017012 207.26519828 294 205 C294.41702122 202.0842309 294.41702122 202.0842309 294 199 C291.20600444 195.60064557 288.3236371 193.99448553 284.31640625 192.2734375 C283.22392578 191.7990625 282.13144531 191.3246875 281.00585938 190.8359375 C279.86955078 190.35382813 278.73324219 189.87171875 277.5625 189.375 C275.86383789 188.64023437 275.86383789 188.64023437 274.13085938 187.890625 C269.44270753 185.86839333 264.74709562 183.88017751 260 182 C261.27147852 174.99886847 262.98092962 168.23932243 265.0625 161.4375 C265.33126953 160.53708984 265.60003906 159.63667969 265.87695312 158.70898438 C267.86717059 152.13282941 267.86717059 152.13282941 269 151 C269.50070321 147.62642666 269.50070321 147.62642666 269 144 C267.06873898 141.32161427 267.06873898 141.32161427 264 140 C258.22583648 140.32460163 253.76830941 142.20097004 248.6484375 144.65625 C247.84779373 145.03044067 247.04714996 145.40463135 246.22224426 145.79016113 C243.60188976 147.01724354 240.9881057 148.25756306 238.375 149.5 C234.69294405 151.24285169 231.00904586 152.98176562 227.32421875 154.71875 C226.38844498 155.16089844 225.4526712 155.60304687 224.48854065 156.05859375 C218.11373783 159.05462001 211.68504335 161.89162184 205.20703125 164.65625 C202.67651133 165.75347463 200.14736897 166.85380874 197.61871338 167.95532227 C196.01019114 168.64649458 194.39586348 169.32432394 192.77581787 169.98803711 C184.00953415 173.33087736 184.00953415 173.33087736 177.22998047 179.46411133 C176.12369087 182.31929551 175.51738835 184.98332156 175 188 C174.48258474 190.23508746 173.95616391 192.46810471 173.421875 194.69921875 C173.02645508 196.41286621 173.02645508 196.41286621 172.62304688 198.16113281 C168.61552465 214.34811576 168.61552465 214.34811576 164.046875 218.00390625 C160.67818144 219.66228293 157.44828888 220.85399604 153.87792969 221.97460938 C148.1462358 224.01678059 142.72155898 226.84107264 137.24645996 229.48303223 C133.75925815 231.15469793 130.25090504 232.78035259 126.7421875 234.40625 C125.40068659 235.02858212 124.05921442 235.65097622 122.71777344 236.2734375 C122.08625366 236.56637695 121.45473389 236.85931641 120.80407715 237.16113281 C119.15189835 237.92936968 117.50209481 238.70270948 115.85253906 239.4765625 C113.32346424 240.66253792 110.78846864 241.83430492 108.25 243 C107.54891113 243.33193359 106.84782227 243.66386719 106.12548828 244.00585938 C103.66764752 245.11710056 101.52238327 245.97951438 98.80859375 246.0859375 C95.87948996 244.32720995 94.49562784 241.49999886 92.8125 238.625 C75.64714106 210.65884517 47.41379008 191.27531286 15.578125 183.5546875 C14.30195313 183.28011719 14.30195313 183.28011719 13 183 C12.12859375 182.79632813 11.2571875 182.59265625 10.359375 182.3828125 C-8.08567206 178.78257604 -29.65827176 179.4103423 -47.625 184.875 C-48.93984375 185.25978516 -48.93984375 185.25978516 -50.28125 185.65234375 C-55.90403337 187.31248305 -61.43102053 189.14367351 -67 191 C-67 150.08 -67 109.16 -67 67 C-36.25 66.75 -36.25 66.75 -26.55175781 66.70214844 C-24.0188616 66.67278793 -21.48598174 66.64196382 -18.953125 66.609375 C-16.97578369 66.60768311 -16.97578369 66.60768311 -14.95849609 66.60595703 C-13.07106689 66.57622803 -13.07106689 66.57622803 -11.14550781 66.54589844 C-10.05296692 66.53701599 -8.96042603 66.52813354 -7.83477783 66.51898193 C-4.41223902 66.16984982 -4.41223902 66.16984982 -1 62 C-0.67 41.54 -0.34 21.08 0 0 Z " fill="#FDFDFD" transform="translate(266,64)"/>
<path d="M0 0 C121.77 0 243.54 0 369 0 C369 169.29 369 338.58 369 513 C358.44 513 347.88 513 337 513 C336.99365209 509.32438321 336.99365209 509.32438321 336.98717594 505.57451153 C336.91303678 462.7116413 336.83763446 419.84877344 336.7563324 376.98591614 C336.75506072 376.31529524 336.75378904 375.64467434 336.75247882 374.9537316 C336.72483685 360.38063241 336.69697386 345.80753366 336.66888306 331.23443533 C336.65510942 324.08817507 336.64138465 316.94191471 336.62768555 309.7956543 C336.62632146 309.08450145 336.62495738 308.37334861 336.62355196 307.64064568 C336.5793315 284.57475812 336.5383398 261.5088662 336.49901587 238.44296982 C336.45860091 214.74709302 336.41494177 191.05122437 336.36717889 167.35536118 C336.33639656 152.08035165 336.3084886 136.80534197 336.28482103 121.53031955 C336.26904373 111.52809965 336.24963898 101.52589097 336.22733159 91.52368351 C336.21455289 85.74522707 336.20342148 79.96677931 336.19658089 74.18831253 C336.19029154 68.90518277 336.17947966 63.6220829 336.1649667 58.33896951 C336.16051501 56.42103166 336.15776812 54.503089 336.15683801 52.58514621 C336.15533848 49.99106644 336.14779993 47.39707431 336.1386652 44.80301189 C336.13968787 44.04722451 336.14071054 43.29143712 336.14176419 42.51274708 C336.12514325 39.40121773 335.99189271 36.97567814 335 34 C331.90498635 32.7770954 328.78043173 32.86989628 325.48574448 32.8601923 C324.3575771 32.85450106 323.22940973 32.84880982 322.06705546 32.84294611 C320.82738749 32.84176624 319.58771951 32.84058636 318.31048584 32.83937073 C316.99372525 32.83428291 315.67696467 32.82919509 314.32030225 32.82395309 C310.66207948 32.81005373 307.00386665 32.80246536 303.34562421 32.7959801 C300.20872152 32.78960637 297.07183515 32.77953674 293.93494263 32.76941944 C283.60155007 32.7361088 273.2681476 32.71457851 262.93471897 32.69621959 C260.24433641 32.69142401 257.55395426 32.68644077 254.86357212 32.68141437 C238.15707629 32.65044703 221.450577 32.62376182 204.74406052 32.60699558 C200.87510929 32.60304609 197.00615813 32.59904309 193.13720703 32.5949707 C192.17559895 32.59396234 191.21399087 32.59295398 190.22324315 32.59191506 C174.64126122 32.57490335 159.05943798 32.53378729 143.47753355 32.48294771 C127.48091321 32.43118409 111.48437453 32.40205517 95.48767114 32.3947987 C86.50562061 32.39013534 77.52383011 32.37537222 68.54186249 32.3350544 C60.89353538 32.30076446 53.24551524 32.2868109 45.59711567 32.29947854 C41.69518437 32.3053076 37.79390237 32.30142514 33.89206886 32.2713089 C30.31766446 32.24394511 26.74437057 32.24444424 23.16994146 32.26681935 C21.26921118 32.27156462 19.36847741 32.24678536 17.46791816 32.22085005 C16.32931979 32.23341304 15.19072143 32.24597603 14.01762009 32.25891972 C13.04162881 32.25718347 12.06563753 32.25544722 11.06007075 32.25365835 C6.80076685 33.07994132 6.80076685 33.07994132 0 39 C0 26.13 0 13.26 0 0 Z " fill="#FEFEFE" transform="translate(248,16)"/>
<path d="M0 0 C1.16917969 0.36222656 2.33835937 0.72445313 3.54296875 1.09765625 C27.36552782 8.89749524 48.54765658 24.74529739 62 46 C62.81089354 47.16778381 63.62314382 48.33462823 64.4375 49.5 C66 52 66 52 66 54 C59.4 56.97 52.8 59.94 46 63 C42.82102385 59.82102385 40.49667777 57.00090046 37.9375 53.375 C23.54860045 33.81555748 2.02551503 23.20052626 -21.51953125 19.4375 C-44.30371144 16.57349531 -66.67729106 23.54357884 -84.94140625 37.19921875 C-87.69082571 39.40249502 -90.35808145 41.66939032 -93 44 C-93.62390625 44.52851563 -94.2478125 45.05703125 -94.890625 45.6015625 C-108.61752485 58.10971891 -117.82185104 78.08175538 -119.26977539 96.41601562 C-119.36385197 99.84502102 -119.3612468 103.25767493 -119.3125 106.6875 C-119.31733398 108.40549805 -119.31733398 108.40549805 -119.32226562 110.15820312 C-119.18100713 132.61830351 -109.92760473 154.09110317 -94.125 170.03125 C-76.16753731 187.41087354 -53.51949805 195.8478486 -28.7109375 195.52172852 C-4.58965287 194.66607484 17.76661981 183.79170906 34.2109375 166.2265625 C50.79259277 147.59356843 57.03588208 123.18413567 56.20556641 98.70898438 C55.79488654 93.29698456 54.40317498 88.24411504 52.875 83.0546875 C52 80 52 80 52 77 C55.12202006 75.49373883 58.24808399 73.99606757 61.375 72.5 C62.26445312 72.07074219 63.15390625 71.64148438 64.0703125 71.19921875 C65.34648438 70.59013672 65.34648438 70.59013672 66.6484375 69.96875 C67.43395996 69.59169922 68.21948242 69.21464844 69.02880859 68.82617188 C71 68 71 68 73 68 C83.71651883 96.7224464 82.19411633 126.06496693 70 154 C57.13241914 182.17964366 33.72196915 202.2137641 5 213 C3.91912109 213.42732422 3.91912109 213.42732422 2.81640625 213.86328125 C-21.57373418 222.85397574 -51.28487983 221.33830065 -75 211 C-78.33920171 209.2884043 -81.62270693 207.47642764 -84.81469727 205.50317383 C-87.87472613 203.7057969 -90.01097587 202.99954417 -93.57421875 202.8515625 C-98.23299927 204.41334297 -99.99677252 206.85677219 -102.8125 210.75 C-103.32893066 211.42957764 -103.84536133 212.10915527 -104.37744141 212.80932617 C-105.43408147 214.20252445 -106.48264468 215.60188616 -107.52294922 217.00732422 C-109.59919821 219.80837285 -111.73878699 222.55689079 -113.875 225.3125 C-114.66519531 226.34632813 -115.45539063 227.38015625 -116.26953125 228.4453125 C-118.39660064 231.2236907 -120.54494668 233.98485071 -122.69921875 236.7421875 C-123.33811035 237.56033936 -123.97700195 238.37849121 -124.63525391 239.22143555 C-125.90310495 240.84375166 -127.17227483 242.46503812 -128.44287109 244.08520508 C-129.0198877 244.82407959 -129.5969043 245.5629541 -130.19140625 246.32421875 C-130.96786499 247.3155481 -130.96786499 247.3155481 -131.76000977 248.3269043 C-134.45351863 251.96120558 -134.54502115 255.60349608 -134 260 C-132.56249809 261.68798827 -132.56249809 261.68798827 -131 263 C-130.32910669 266.66360368 -130.9694853 267.95405392 -133.0546875 271.09375 C-133.98310242 272.23874458 -134.92403999 273.37365995 -135.875 274.5 C-136.89786732 275.75461198 -137.91998797 277.00983303 -138.94140625 278.265625 C-139.71701904 279.20825195 -139.71701904 279.20825195 -140.50830078 280.16992188 C-142.66864024 282.82031542 -144.73882083 285.53109953 -146.8125 288.25 C-150.98025112 293.68212506 -155.17206086 299.09505403 -159.375 304.5 C-159.97030518 305.26602539 -160.56561035 306.03205078 -161.17895508 306.82128906 C-162.29345275 308.2536947 -163.40956471 309.68484636 -164.52758789 311.11450195 C-165.78186212 312.72066343 -167.02670323 314.33418406 -168.26953125 315.94921875 C-171.15305415 319.3664863 -173.93852403 319.836696 -178.25 320.5 C-186.8741646 319.35011139 -194.0107371 311.93578734 -200 306 C-201.87825375 302.2434925 -201.56053832 298.08792052 -201 294 C-199.65169581 291.0363596 -197.78445789 288.72430824 -195.6875 286.25 C-194.87369873 285.23039185 -194.87369873 285.23039185 -194.04345703 284.19018555 C-192.92379622 282.79052818 -191.79418964 281.39876908 -190.65478516 280.01513672 C-188.63717043 277.55815944 -186.68183755 275.05648831 -184.72851562 272.54833984 C-183.38232715 270.82189684 -182.02645127 269.10349858 -180.66796875 267.38671875 C-177.9822835 263.98563691 -175.33074223 260.55911788 -172.6875 257.125 C-172.27129395 256.58891113 -171.85508789 256.05282227 -171.42626953 255.50048828 C-169.63078326 253.17815235 -167.89520571 250.84456685 -166.25390625 248.41015625 C-163.70332579 244.64059708 -163.70332579 244.64059708 -162 243 C-158.6875 242.4375 -158.6875 242.4375 -156 243 C-155.67 243.33 -155.34 243.66 -155 244 C-150.9249814 244.47019445 -148.80307661 244.62238437 -145.5 242.0625 C-142.25986357 238.09333288 -139.10045077 234.07922052 -136 230 C-134.48026645 228.01998872 -132.95934035 226.04089245 -131.4375 224.0625 C-131.02918945 223.53011719 -130.62087891 222.99773437 -130.20019531 222.44921875 C-127.60180702 219.0652712 -124.98382796 215.69752055 -122.3515625 212.33984375 C-121.41098999 211.13799438 -121.41098999 211.13799438 -120.45141602 209.91186523 C-119.21466383 208.33271635 -117.97565281 206.75533331 -116.73413086 205.17993164 C-111.26806217 198.84700393 -111.26806217 198.84700393 -108.875 191.1875 C-110.228255 187.35327749 -112.16493635 185.27522262 -114.90234375 182.32421875 C-121.83032427 174.64796473 -127.41754606 166.24553758 -132 157 C-132.42925781 156.175 -132.85851562 155.35 -133.30078125 154.5 C-136.11818623 148.77796389 -138.0289576 142.93460978 -139.75 136.8125 C-139.96084229 136.06411865 -140.17168457 135.3157373 -140.38891602 134.54467773 C-142.8444042 125.42040984 -143.18207949 116.66000881 -143.1875 107.25 C-143.19974609 106.1465625 -143.21199219 105.043125 -143.22460938 103.90625 C-143.27973169 72.59677293 -129.3335586 46.70600894 -107.76953125 24.7265625 C-80.44621683 -1.36102414 -35.91270431 -12.40472799 0 0 Z " fill="#FBFBFB" transform="translate(284,264)"/>
<path d="M0 0 C1.14020426 -0.00935994 1.14020426 -0.00935994 2.30344296 -0.01890898 C4.8524311 -0.0348734 7.40046753 -0.02222178 9.94946289 -0.00964355 C11.77605752 -0.01506316 13.60264778 -0.02218491 15.42922974 -0.03088379 C20.39202184 -0.04913932 25.35448181 -0.0420404 30.31727982 -0.02936745 C35.50710201 -0.01925134 40.69689546 -0.02862926 45.88671875 -0.03491211 C54.60267247 -0.04219256 63.31849068 -0.03259035 72.03442383 -0.0135498 C82.11606296 0.00821967 92.19737853 0.00116858 102.27900982 -0.02085543 C110.92964037 -0.03899807 119.58017342 -0.0415733 128.23081684 -0.03110075 C133.39977129 -0.02485958 138.56857359 -0.02404733 143.73751831 -0.0372467 C148.59673102 -0.04878804 153.45552595 -0.04081089 158.31469345 -0.01766968 C160.09972311 -0.0123734 161.88478784 -0.01391203 163.66980362 -0.02272034 C166.1034257 -0.0336235 168.53570235 -0.01997691 170.96923828 0 C172.03324309 -0.01338433 172.03324309 -0.01338433 173.11874294 -0.02703905 C176.4810039 0.02663592 178.2169491 0.30361093 180.92258453 2.36893463 C182.97659798 5.18163457 182.99164067 6.94006836 183.00219727 10.40637207 C183.01480591 11.5944043 183.02741455 12.78243652 183.04040527 14.00646973 C183.03230835 15.28570312 183.02421143 16.56493652 183.01586914 17.88293457 C183.01969604 19.19955078 183.02352295 20.51616699 183.02746582 21.87268066 C183.03335638 24.65688891 183.02481328 27.44058307 183.00610352 30.22473145 C182.9833129 33.7894279 182.99643854 37.35291975 183.02039337 40.91757202 C183.03834245 44.32278887 183.02576691 47.72768351 183.01586914 51.13293457 C183.02396606 52.41216797 183.03206299 53.69140137 183.04040527 55.00939941 C183.02149231 56.79144775 183.02149231 56.79144775 183.00219727 58.60949707 C182.99901489 59.65444336 182.99583252 60.69938965 182.99255371 61.77600098 C182.33027238 65.33809088 181.35536551 66.31607962 178.48461914 68.50793457 C175.84073343 68.90317475 173.61148458 69.05329475 170.96923828 69.02259827 C170.20910211 69.02954379 169.44896593 69.03648932 168.66579533 69.04364532 C166.1168242 69.06195263 163.56877988 69.05164113 161.01977539 69.04138184 C159.19317934 69.0484384 157.36658914 69.05718231 155.54000854 69.06748962 C150.57722965 69.09002163 145.61476909 69.08703518 140.65195847 69.07816815 C136.51155581 69.07306428 132.3712133 69.08034585 128.23081684 69.08764023 C118.46542942 69.104651 108.70019821 69.1010611 98.93481445 69.08435059 C88.85312579 69.06742217 78.77186987 69.08327109 68.69022846 69.11557347 C60.03959348 69.1422429 51.38909342 69.1495527 42.73842144 69.14105839 C37.56942326 69.13612215 32.4006856 69.13838256 27.23171997 69.1588459 C22.37244225 69.17716184 17.51378872 69.17129455 12.65454483 69.1466465 C10.8695113 69.14162585 9.08443054 69.14516077 7.29943466 69.15779495 C4.86556622 69.17366131 2.43376952 69.15883814 0 69.13612366 C-1.06400481 69.15387725 -1.06400481 69.15387725 -2.14950466 69.1719895 C-5.84157223 69.10179915 -7.26083634 68.75469098 -9.95334625 66.14456177 C-11.79489969 63.0361224 -12.0217934 61.18391691 -12.03295898 57.58776855 C-12.04556763 56.41983261 -12.05817627 55.25189667 -12.07116699 54.04856873 C-12.06307007 52.79637039 -12.05497314 51.54417206 -12.04663086 50.25402832 C-12.05045776 48.9610231 -12.05428467 47.66801788 -12.05822754 46.33583069 C-12.0641114 43.60467324 -12.05559535 40.87404058 -12.03686523 38.14294434 C-12.01405225 34.64665024 -12.02721852 31.15158286 -12.05115509 27.65533352 C-12.0691015 24.31313392 -12.05653019 20.97126275 -12.04663086 17.62902832 C-12.05472778 16.37480576 -12.06282471 15.12058319 -12.07116699 13.82835388 C-12.05855835 12.6635701 -12.04594971 11.49878632 -12.03295898 10.29870605 C-12.02977661 9.27454086 -12.02659424 8.25037567 -12.02331543 7.19517517 C-10.75798098 0.50089147 -5.95982183 -0.0749698 0 0 Z " fill="#050505" transform="translate(298.515380859375,113.4920654296875)"/>
<path d="M0 0 C1.03125 0.44472656 2.0625 0.88945312 3.125 1.34765625 C14.03136919 6.66141283 26.76119049 17.52799262 31 29 C26.39909512 31.3270302 21.78946682 33.63502372 17.16845703 35.921875 C15.78643359 36.60899677 14.40690652 37.30117913 13.03076172 38 C11.27786786 38.88965271 9.51418779 39.7579589 7.75 40.625 C6.73421875 41.13289063 5.7184375 41.64078125 4.671875 42.1640625 C2 43 2 43 -0.10546875 42.390625 C-2.28499977 40.79080429 -4.14161267 39.02793511 -6.0625 37.125 C-14.94386329 29.23364328 -24.71185932 27.92749059 -36.2578125 28.4296875 C-45.57464262 29.2507683 -53.21288408 33.66065822 -59.625 40.4375 C-66.81941856 49.49201396 -70.18245793 59.39993801 -69 71 C-66.76995513 82.09681012 -62.3097022 91.10602119 -53.125 97.9375 C-42.93504924 104.4150699 -32.62441861 105.70659874 -20.68359375 103.34375 C-10.55223271 100.34186525 -2.24498126 94.26241372 3 85 C7.47562303 75.67229966 7.37848688 67.09985615 7 57 C11.07189366 55.14143093 15.14703215 53.29023333 19.2253418 51.44580078 C20.61232601 50.81728553 21.99840259 50.18676333 23.38354492 49.55419922 C25.37443721 48.64542216 27.36847972 47.74390755 29.36328125 46.84375 C30.56251221 46.29912109 31.76174316 45.75449219 32.99731445 45.19335938 C36 44 36 44 39 44 C44.29219682 66.49183649 42.29550341 87.15901172 29.9375 107.1875 C17.41787893 125.36114348 -0.87180064 134.51380782 -22.046875 138.5859375 C-40.94949023 141.23630419 -58.60685227 135.43723025 -74.1328125 124.8671875 C-89.85290947 112.6501762 -100.22066377 94.72120314 -103 75 C-104.13351216 55.33792363 -100.56824308 36.50915312 -87.73046875 20.91796875 C-87.15941406 20.28503906 -86.58835938 19.65210938 -86 19 C-85.23300781 18.12988281 -84.46601563 17.25976562 -83.67578125 16.36328125 C-62.20721877 -6.60964766 -28.57882024 -12.86503928 0 0 Z " fill="#FCFCFC" transform="translate(283,305)"/>
<path d="M0 0 C53.46 0 106.92 0 162 0 C162 11.88 162 23.76 162 36 C108.54 36 55.08 36 0 36 C0 24.12 0 12.24 0 0 Z " fill="#FEFEFE" transform="translate(303,130)"/>
<path d="M0 0 C0.70933654 0.01183573 1.41867308 0.02367146 2.14950466 0.03586584 C2.90964084 0.02877146 3.66977701 0.02167707 4.45294762 0.0143677 C7.00213403 -0.00324619 9.54980248 0.01490846 12.09896755 0.03295141 C13.92556357 0.02781386 15.75215465 0.02053383 17.5787344 0.01126868 C22.54160381 -0.00727449 27.50393725 0.00571163 32.46678448 0.02535897 C37.656604 0.04172272 42.84638897 0.03293575 48.03622341 0.02783972 C56.75221238 0.02331622 65.46798693 0.03920453 74.18392849 0.0671311 C84.26557693 0.09918412 94.34683858 0.09916808 104.42851448 0.08191633 C114.12056428 0.06606115 123.81247207 0.07277832 133.50451565 0.08985335 C137.63205646 0.09673199 141.75948372 0.09568305 145.88702297 0.08830839 C150.74625343 0.08065605 155.6050429 0.0927373 160.46419811 0.1201573 C162.24922152 0.12705326 164.03428601 0.12712617 165.81930828 0.11994177 C168.25294791 0.11127435 170.68521804 0.12715559 173.11874294 0.14939123 C173.82807948 0.14115047 174.53741602 0.1329097 175.2682476 0.12441921 C178.59656158 0.18069358 180.37128234 0.46858697 183.07258511 2.47747141 C185.35785462 5.67747707 185.18165642 7.8313266 184.6341238 11.66405493 C182.76703876 14.02902932 181.31350949 15.32436208 178.6341238 16.66405493 C176.25491589 16.77018053 173.90441989 16.81625853 171.5245657 16.81795508 C170.78388371 16.82233733 170.04320173 16.82671958 169.28007483 16.83123463 C166.78513291 16.84464513 164.29022633 16.85080653 161.79525661 16.85692602 C160.01161444 16.86482523 158.22797386 16.87309407 156.44433498 16.8817063 C150.57532183 16.90794775 144.70630146 16.9232362 138.8372488 16.93749243 C136.81845755 16.94285127 134.79966636 16.94822877 132.78087521 16.95362478 C124.38431447 16.97525675 115.98775568 16.99399409 107.59117413 17.00524718 C95.54979851 17.02148996 83.50874541 17.05467217 71.46749139 17.11164802 C63.00543149 17.15032558 54.54345793 17.16987729 46.08131194 17.17516774 C41.02507203 17.17882424 35.96917595 17.19087712 30.91303158 17.22327048 C26.15561035 17.25331256 21.39874165 17.25967674 16.64124584 17.24788672 C14.89573134 17.24766566 13.15019149 17.25599753 11.40476513 17.27354056 C9.01971633 17.29620616 6.63667556 17.28795132 4.25161648 17.27205664 C3.56230518 17.28593873 2.87299387 17.29982081 2.16279435 17.31412357 C-1.57107809 17.25289379 -3.91866284 16.58263158 -6.80290699 14.31355482 C-9.3658762 11.66405493 -9.3658762 11.66405493 -9.9908762 8.66405493 C-8.76579158 2.78364875 -6.09311609 0.11583697 0 0 Z " fill="#080808" transform="translate(351.36587619781494,484.3359450697899)"/>
<path d="M0 0 C-1.41856745 5.85536353 -2.85713366 11.65278656 -4.75 17.375 C-5.91954812 21.27766324 -6.58393261 24.08675472 -5 28 C-0.41817627 31.52885803 4.44416926 33.55638491 9.8125 35.625 C17.86553811 38.73107621 17.86553811 38.73107621 19 41 C18.41025391 41.25467041 17.82050781 41.50934082 17.21289062 41.77172852 C14.30643131 43.03039859 11.4028864 44.29561059 8.5 45.5625 C7.40461914 46.03977539 6.30923828 46.51705078 5.18066406 47.00878906 C-1.47139728 49.93214138 -8.06085253 52.95677198 -14.609375 56.10546875 C-15.32859131 56.44965347 -16.04780762 56.7938382 -16.78881836 57.14845276 C-20.34985732 58.85303125 -23.90340447 60.57078102 -27.44726562 62.31079102 C-28.76142213 62.94218676 -30.07586203 63.57299308 -31.390625 64.203125 C-32.54594727 64.76676758 -33.70126953 65.33041016 -34.89160156 65.91113281 C-40.12629925 67.74483935 -43.63080287 65.87243896 -48.51953125 63.71484375 C-49.54111328 63.26689453 -50.56269531 62.81894531 -51.61523438 62.35742188 C-52.67033203 61.88884766 -53.72542969 61.42027344 -54.8125 60.9375 C-55.88693359 60.46505859 -56.96136719 59.99261719 -58.06835938 59.50585938 C-60.71423376 58.34167464 -63.35798995 57.17292168 -66 56 C-65.68999584 53.32895407 -65.35162884 50.66567644 -65 48 C-64.90509277 47.17064941 -64.81018555 46.34129883 -64.71240234 45.48681641 C-63.6216731 37.46973265 -62.00218831 29.16213092 -55.37597656 23.92675781 C-49.19590636 20.33523963 -42.59147575 17.75143866 -35.90638733 15.26535034 C-29.16595284 12.75292091 -22.72213218 9.684826 -16.23910522 6.57888794 C-13.27950405 5.16364981 -10.30995487 3.77146803 -7.3359375 2.38671875 C-5.85939697 1.69388794 -5.85939697 1.69388794 -4.35302734 0.98706055 C-2 0 -2 0 0 0 Z " fill="#FBFBFB" transform="translate(515,226)"/>
<path d="M0 0 C1.45074335 -0.00514042 2.90148046 -0.01242263 4.35220337 -0.02168274 C8.28623731 -0.04018984 12.21959311 -0.0272631 16.15359879 -0.00759244 C20.27257314 0.00880136 24.3915048 -0.00001985 28.51049805 -0.00511169 C35.4273562 -0.00963185 42.34394385 0.0062322 49.26074219 0.03417969 C57.25488606 0.06623139 65.24854209 0.0662157 73.2427206 0.04896492 C80.93625944 0.03309515 88.6296196 0.03983624 96.32315063 0.05690193 C99.59580243 0.06377037 102.86831092 0.06274216 106.14096069 0.05535698 C109.99562215 0.04768961 113.84972917 0.05983431 117.70429611 0.08720589 C119.11800872 0.09408617 120.53177315 0.09419143 121.94548416 0.08699036 C123.87682876 0.07828698 125.80823862 0.09670053 127.73950195 0.11643982 C128.81980179 0.11924674 129.90010162 0.12205366 131.01313782 0.12494564 C134.62923645 0.75334965 136.31787417 2.09826534 138.92578125 4.63110352 C139.58984375 6.63110352 139.58984375 6.63110352 139.55078125 8.63110352 C139.56367187 9.29110352 139.5765625 9.95110352 139.58984375 10.63110352 C138.55404658 13.75068088 136.61395857 14.82915201 133.92578125 16.63110352 C131.01313782 17.13726139 131.01313782 17.13726139 127.73950195 17.14576721 C126.49455963 17.15849167 125.24961731 17.17121613 123.96694946 17.18432617 C122.5951519 17.17814433 121.2233562 17.17153834 119.8515625 17.16455078 C118.40081912 17.17161129 116.95008311 17.18035687 115.49935913 17.19065857 C111.56543978 17.21314651 107.63192284 17.21021461 103.69796371 17.2013371 C100.41255242 17.19622491 97.1272166 17.20352153 93.84181309 17.21080917 C86.09141497 17.22780586 78.34121376 17.22424424 70.59082031 17.20751953 C62.59662572 17.19059177 54.6029769 17.20644191 46.6088419 17.23874241 C39.74243665 17.26543459 32.87620133 17.27271555 26.00974941 17.26422733 C21.9099103 17.25929777 17.8103997 17.2615152 13.71060181 17.28201485 C9.85588071 17.30036686 6.00194522 17.29442023 2.14726639 17.26981544 C0.73354103 17.26480619 -0.68024414 17.2683005 -2.09392166 17.2809639 C-14.111111 17.3800876 -14.111111 17.3800876 -17.41479492 14.27915955 C-19.48034121 10.98302615 -19.86941718 9.44805598 -19.07421875 5.63110352 C-14.6628951 -1.40834716 -7.53411541 -0.06748887 0 0 Z " fill="#020202" transform="translate(397.07421875,427.368896484375)"/>
<path d="M0 0 C1.09355804 -0.0112793 2.18711609 -0.02255859 3.31381226 -0.03417969 C5.10620834 -0.0220343 5.10620834 -0.0220343 6.93481445 -0.00964355 C8.19693756 -0.01665283 9.45906067 -0.02366211 10.75942993 -0.03088379 C14.21818541 -0.04911266 17.67646342 -0.04205186 21.1352272 -0.02936745 C24.7555291 -0.01923732 28.37579024 -0.02863315 31.99609375 -0.03491211 C38.07567685 -0.04218852 44.15506556 -0.03260114 50.23461914 -0.0135498 C57.26253812 0.00821913 64.28999293 0.00116774 71.31790066 -0.02085543 C77.35285381 -0.03900977 83.38766726 -0.04156765 89.42263889 -0.03110075 C93.02665884 -0.02486592 96.63046064 -0.02402964 100.23446655 -0.0372467 C104.25204947 -0.05095142 108.26883274 -0.03195523 112.28637695 -0.00964355 C114.07877304 -0.02178894 114.07877304 -0.02178894 115.90737915 -0.03417969 C117.54771622 -0.01726074 117.54771622 -0.01726074 119.22119141 0 C120.17097366 0.0015081 121.12075592 0.0030162 122.09931946 0.00457001 C125.38631408 0.66342091 126.57909866 1.8858499 128.6105957 4.50793457 C129.1105957 8.00793457 129.1105957 8.00793457 128.6105957 11.50793457 C126.74351066 13.87290896 125.28998139 15.16824172 122.6105957 16.50793457 C120.93685506 16.60933277 119.25911267 16.64738559 117.58232117 16.65510559 C116.51820007 16.66226089 115.45407898 16.6694162 114.35771179 16.67678833 C113.18521378 16.67947723 112.01271576 16.68216614 110.8046875 16.68493652 C109.57372345 16.69150772 108.3427594 16.69807892 107.07449341 16.70484924 C103.69213997 16.72120518 100.30984913 16.73281165 96.92747092 16.74105477 C94.81445111 16.74620452 92.70143568 16.75228027 90.58841896 16.7585659 C83.97775784 16.77761883 77.3671079 16.79184964 70.75642461 16.80017787 C63.12460545 16.80995117 55.49307627 16.83627232 47.8613593 16.87667876 C41.96319796 16.90683553 36.06511976 16.92164631 30.16688281 16.92495888 C26.64379029 16.92730993 23.12100751 16.93627675 19.59799767 16.96142006 C15.66679977 16.98902305 11.73598362 16.98487094 7.8046875 16.97790527 C6.63826218 16.99071533 5.47183685 17.00352539 4.27006531 17.01672363 C-3.61475254 16.96567783 -3.61475254 16.96567783 -7.61222839 14.6035614 C-9.53075536 12.3412549 -10.04910348 11.43534524 -9.9519043 8.50793457 C-9.95319336 7.84793457 -9.95448242 7.18793457 -9.95581055 6.50793457 C-8.50601139 1.38864376 -4.9350933 0.00783614 0 0 Z " fill="#060606" transform="translate(407.389404296875,371.4920654296875)"/>
<path d="M0 0 C0 0.99 0 1.98 0 3 C-0.55985596 3.25168945 -1.11971191 3.50337891 -1.6965332 3.76269531 C-4.24042242 4.9139483 -6.77638037 6.08173695 -9.3125 7.25 C-10.19357422 7.64574219 -11.07464844 8.04148437 -11.98242188 8.44921875 C-12.82998047 8.84238281 -13.67753906 9.23554688 -14.55078125 9.640625 C-15.72120972 10.17478027 -15.72120972 10.17478027 -16.9152832 10.71972656 C-19.33829677 12.20775598 -20.56850807 13.54864563 -22 16 C-22.00668717 19.62057268 -22.00668717 19.62057268 -21 23 C-17.39152869 25.40564754 -16.26903598 25.47215144 -12 25 C-8.81690315 23.87210815 -5.79557418 22.45401606 -2.75 21 C-1.14206546 20.24691673 0.46724635 19.49676494 2.078125 18.75 C2.78356445 18.41484375 3.48900391 18.0796875 4.21582031 17.734375 C6 17 6 17 8 17 C7.48940547 24.92301851 6.18498551 30.18744664 0.1875 35.75 C-5.65587496 40.54537836 -10.79579834 41.48062609 -18.25390625 41.30859375 C-24.21371321 40.63885726 -28.2995324 38.05455297 -32.3125 33.6875 C-36.73528159 27.99934493 -38.60505639 22.67030071 -38.34375 15.484375 C-37.3258835 8.1279762 -32.76926332 2.45057456 -27 -2 C-17.39420221 -7.52823465 -9.09658718 -5.31742048 0 0 Z " fill="#F8F8F8" transform="translate(267,353)"/>
<path d="M0 0 C0 12.54 0 25.08 0 38 C-12.87 38 -25.74 38 -39 38 C-32.24642015 30.12082351 -32.24642015 30.12082351 -29.50488281 27.35961914 C-28.89114807 26.73950455 -28.27741333 26.11938995 -27.64508057 25.48048401 C-27.00423523 24.83852585 -26.36338989 24.19656769 -25.703125 23.53515625 C-25.02828064 22.85698349 -24.35343628 22.17881073 -23.65814209 21.48008728 C-22.24426763 20.06118623 -20.8290685 18.64360403 -19.41259766 17.22729492 C-17.23701912 15.04950593 -15.06959019 12.86381155 -12.90234375 10.67773438 C-11.52392635 9.29638702 -10.14503709 7.91551031 -8.765625 6.53515625 C-8.11668274 5.87902847 -7.46774048 5.2229007 -6.7991333 4.54689026 C-6.1980072 3.94884079 -5.5968811 3.35079132 -4.97753906 2.73461914 C-4.44936584 2.2050209 -3.92119263 1.67542267 -3.37701416 1.129776 C-2 0 -2 0 0 0 Z " fill="#F9F9F9" transform="translate(250,77)"/>
</svg>
