<svg xmlns="http://www.w3.org/2000/svg" xmlns:xlink="http://www.w3.org/1999/xlink" version="1.1" x="0px" y="0px" viewBox="0 0 512 640" style="enable-background:new 0 0 512 512;" xml:space="preserve"><style type="text/css">
	.st0{fill:none;}
</style><g><path class="st0" d="M286.24,136.84c3.27-2.44,6.56-4.25,9.8-5.38c-4.03-2.13-8.15-3.95-12.46-5.41   c-2.94,4.07-5.89,8.15-8.54,12.39c-2.01,3.22-2.91,6.19-2.76,9.06l4.8-3.25C280.09,141.72,283.1,139.19,286.24,136.84z"/><path class="st0" d="M185.83,187.44c13.5,2.7,23.35,15.22,23.43,29.74c0.01,2.68-0.11,5.37-0.48,8.03   c-0.27,1.91,0.2,2.34,1.12,2.97l7.06,4.88c8.08,5.71,12.45,12.46,13.37,20.64c0.24,2.06,0.3,4.09,0.28,6.11l0.47,0.18   c1.97,0.78,4.09,0.67,5.99-0.29c1.95-1,3.32-2.73,3.86-4.88c0.94-3.79,0.86-9.75-0.09-12.26c-3.34-8.86-2.44-18.06,2.68-27.36   l2.34-4.06c0.92-1.56,1.85-3.13,2.69-4.74c0.67-1.27,1.22-2.33,1.3-2.72c-0.31-0.34-1.16-1.13-2.26-1.54   c-1.09-0.42-2.24-0.36-3.16,0.14l-2.84,1.55c-2.03,1.11-4.05,2.22-6.12,3.24c-4.66,2.31-9.06,3.05-13.43,2.29   c-7.37-1.28-13.22-5.7-17.37-13.12c-4.9-8.76-2.98-19.17,4.66-25.31c2.75-2.21,5.78-3.76,8.47-5.13l1.6-0.83   c1.27-0.66,2.6-1.19,3.94-1.7c0.78-0.3,1.57-0.59,2.31-0.97c4.45-2.26,6.3-5.21,6.2-9.86l7.51-2.16l-7.48,0.4   c-0.1-0.89-0.27-1.83-0.46-2.76c-1.43-6.82-4.78-13.09-9.05-19.88c-21.64,9.24-38.76,27.13-47.13,49.22   C176.59,183.13,179.75,186.23,185.83,187.44z"/><path class="st0" d="M310.47,253.09c0.97-5.81,3.3-11.39,6.9-16.63c3.38-4.91,4.19-10.15,2.47-16c-1.48-5.06-4.58-7.59-10.38-8.46   c-3.58-0.53-7.07-1.76-10.1-3.56c-8.38-4.97-11.61-15.04-7.85-24.49c3.62-9.15,10.94-14.81,22.36-17.3   c5.98-1.3,11.79-1.59,17.3-1.46c-3.93-6.93-8.79-13.39-14.62-19.16c-0.75-0.74-1.64-1.25-2.41-1.96c-0.21,0.01-0.39,0.11-0.6,0.1   c-5.34-0.19-9.15,0.24-12.51,1.41c-1.78,0.62-3.79,1.74-5.81,3.25c-2.91,2.18-5.71,4.54-8.52,6.9l-4.07,3.39   c-0.26,0.22-1.64,1.16-1.93,1.33c-2.83,1.76-5.87,2.64-8.82,2.64c-2.3,0-4.55-0.53-6.6-1.6c-4.71-2.47-7.7-7.4-8-13.22   c-0.31-5.95,1.38-11.94,5.02-17.78c1.75-2.8,3.72-5.45,5.61-8.15c-3.97-0.55-7.93-1.16-12.01-1.16c-0.37,0-0.74,0-1.11,0.01   c-6.04,0.08-11.93,0.81-17.62,2.08c3.85,6.5,7.23,13.59,8.91,21.61c0.29,1.39,0.53,2.8,0.7,4.22c0.1,0.89,0.1,1.79,0.07,2.69   c0.21,10.87-4.77,19-14.4,23.9c-1.2,0.62-2.48,1.12-3.76,1.61c-0.81,0.31-1.61,0.6-2.37,0.99l-1.74,0.89   c-2.23,1.13-4.33,2.2-5.87,3.45c-2.28,1.84-2,4.46-0.97,6.3c2.44,4.37,4.83,5.32,6.85,5.67c0.72,0.14,1.95,0.15,4.22-0.96   c1.87-0.93,3.71-1.94,5.55-2.94l2.99-1.62c4.69-2.53,10.32-2.87,15.41-0.99c5.12,1.88,9.17,5.82,11.12,10.79   c2.38,6.06-0.21,11-1.76,13.94c-1.22,2.35-2.28,4.15-3.35,5.95l-2.11,3.66c-3.04,5.51-3.59,10.08-1.79,14.84   c2.29,6.06,2.06,15.29,0.68,20.91c-1.67,6.62-5.89,11.93-11.64,14.88c-3.18,1.63-6.67,2.45-10.17,2.45c-2.76,0-5.54-0.51-8.16-1.55   l-5.44-2.15c-3.02-1.19-4.94-4.2-4.73-7.44c0.18-2.99,0.37-6.02,0.04-8.98c-0.43-3.79-2.63-6.9-7.13-10.09l-6.96-4.8   c-5.79-4.03-8.43-10.2-7.42-17.38c0.27-1.94,0.34-3.92,0.34-5.87c-0.04-7.43-4.83-13.8-11.38-15.11c-4.98-1-9.02-3.09-12.47-5.78   c-0.49,3.68-0.83,7.41-0.83,11.22c-0.01,23.2,9.09,44.98,25.63,61.35c16.6,16.42,39.24,25.52,61.76,25.06   c21.48-0.24,41.1-8.55,56.14-21.94C310.16,266.63,309.26,260.28,310.47,253.09z"/><path class="st0" d="M48.73,334.61v17.15c0,12.06,9.81,21.87,21.88,21.87h370.78c12.07,0,21.88-9.81,21.88-21.87v-17.15H48.73z    M268.88,361.02h-25.76c-4.14,0-7.5-3.35-7.5-7.5c0-4.14,3.35-7.5,7.5-7.5h25.76c4.14,0,7.5,3.35,7.5,7.5   C276.37,357.67,273.02,361.02,268.88,361.02z"/><polygon class="st0" points="172.34,417.13 339.65,417.13 315.44,388.62 196.56,388.62  "/><path class="st0" d="M317.09,181.31c-6.52,1.43-9.9,3.8-11.64,8.19c-0.5,1.26-1.34,4.33,1.56,6.06c1.33,0.79,3.03,1.38,4.67,1.63   c11.62,1.75,19.42,8.35,22.55,19.08c2.98,10.16,1.41,20.1-4.53,28.72c-2.39,3.46-3.84,6.93-4.46,10.6c-0.21,1.24,0,2.14-0.01,3.2   c10.64-14.34,17.07-31.98,17.16-51.05c0-9.36-1.54-18.47-4.39-27.12C331.48,180,324.23,179.74,317.09,181.31z"/><path class="st0" d="M441.39,94.87H70.61c-12.07,0-21.88,9.75-21.88,21.73v190v13.01h414.54V306.6v-190   C463.27,104.62,453.46,94.87,441.39,94.87z M357.4,207.8c-0.25,55.17-45.22,100.57-100.26,101.19c-0.39,0.01-0.78,0.01-1.16,0.01   c-26.84,0-52.12-10.41-71.31-29.41c-19.41-19.21-30.09-44.78-30.07-72.02c0.04-55.21,44.91-100.69,100.02-101.38   c27.87-0.72,53.1,10.02,72.49,29.18c19.55,19.31,30.31,45.02,30.3,72.4C357.4,207.78,357.4,207.79,357.4,207.8z"/><path d="M441.39,79.88H70.61c-20.33,0-36.88,16.48-36.88,36.72v190v45.16c0,20.33,16.54,36.87,36.88,36.87h106.28l-26.47,31.15   c-1.9,2.23-2.32,5.35-1.09,8c1.22,2.65,3.88,4.35,6.8,4.35h199.74c2.92,0,5.58-1.7,6.8-4.35c1.23-2.65,0.81-5.78-1.09-8   l-26.47-31.15h106.28c20.33,0,36.88-16.54,36.88-36.87V306.6v-190C478.27,96.35,461.72,79.88,441.39,79.88z M339.65,417.13H172.34   l24.22-28.51h118.87L339.65,417.13z M441.39,373.63H70.61c-12.07,0-21.88-9.81-21.88-21.87v-17.15h414.54v17.15   C463.27,363.81,453.46,373.63,441.39,373.63z M463.27,319.61H48.73V306.6v-190c0-11.98,9.81-21.73,21.88-21.73h370.78   c12.07,0,21.88,9.75,21.88,21.73v190V319.61z"/><path d="M268.88,346.03h-25.76c-4.14,0-7.5,3.35-7.5,7.5c0,4.14,3.35,7.5,7.5,7.5h25.76c4.14,0,7.5-3.35,7.5-7.5   C276.37,349.38,273.02,346.03,268.88,346.03z"/><path d="M254.61,106.19c-55.11,0.69-99.98,46.17-100.02,101.38c-0.02,27.24,10.66,52.82,30.07,72.02   c19.19,18.99,44.48,29.41,71.31,29.41c0.39,0,0.78,0,1.16-0.01c55.03-0.62,100.01-46.01,100.26-101.19c0-0.01,0-0.02,0-0.04   c0.01-27.38-10.75-53.09-30.3-72.4C307.71,116.21,282.48,105.48,254.61,106.19z M275.03,138.44c2.65-4.25,5.6-8.32,8.54-12.39   c4.31,1.46,8.44,3.28,12.46,5.41c-3.24,1.14-6.53,2.94-9.8,5.38c-3.13,2.36-6.15,4.88-9.16,7.41l-4.8,3.25   C272.12,144.63,273.03,141.66,275.03,138.44z M222.36,128.06c4.28,6.8,7.62,13.07,9.05,19.88c0.19,0.93,0.36,1.87,0.46,2.76   l7.48-0.4l-7.51,2.16c0.1,4.65-1.75,7.59-6.2,9.86c-0.74,0.38-1.53,0.67-2.31,0.97c-1.34,0.51-2.67,1.04-3.94,1.7l-1.6,0.83   c-2.69,1.36-5.73,2.91-8.47,5.13c-7.64,6.14-9.56,16.54-4.66,25.31c4.15,7.42,9.99,11.84,17.37,13.12   c4.37,0.75,8.76,0.02,13.43-2.29c2.07-1.02,4.09-2.12,6.12-3.24l2.84-1.55c0.92-0.5,2.07-0.56,3.16-0.14   c1.1,0.4,1.96,1.2,2.26,1.54c-0.07,0.39-0.63,1.45-1.3,2.72c-0.83,1.61-1.76,3.18-2.69,4.74l-2.34,4.06   c-5.12,9.29-6.02,18.5-2.68,27.36c0.95,2.51,1.03,8.47,0.09,12.26c-0.54,2.15-1.91,3.88-3.86,4.88c-1.9,0.97-4.02,1.07-5.99,0.29   l-0.47-0.18c0.02-2.02-0.04-4.05-0.28-6.11c-0.92-8.18-5.29-14.93-13.37-20.64l-7.06-4.88c-0.92-0.64-1.39-1.06-1.12-2.97   c0.37-2.65,0.49-5.35,0.48-8.03c-0.08-14.53-9.94-27.04-23.43-29.74c-6.08-1.21-9.25-4.31-10.6-10.16   C183.61,155.19,200.72,137.3,222.36,128.06z M256.98,294c-22.52,0.46-45.16-8.63-61.76-25.06c-16.54-16.37-25.64-38.16-25.63-61.35   c0-3.81,0.34-7.54,0.83-11.22c3.45,2.69,7.48,4.79,12.47,5.78c6.55,1.31,11.33,7.67,11.38,15.11c0.01,1.96-0.07,3.93-0.34,5.87   c-1.01,7.18,1.63,13.36,7.42,17.38l6.96,4.8c4.5,3.19,6.7,6.3,7.13,10.09c0.34,2.96,0.15,5.99-0.04,8.98   c-0.21,3.24,1.71,6.25,4.73,7.44l5.44,2.15c2.63,1.03,5.4,1.55,8.16,1.55c3.5,0,6.99-0.82,10.17-2.45   c5.76-2.95,9.97-8.26,11.64-14.88c1.38-5.62,1.61-14.85-0.68-20.91c-1.79-4.76-1.24-9.33,1.79-14.84l2.11-3.66   c1.06-1.8,2.12-3.6,3.35-5.95c1.55-2.94,4.14-7.88,1.76-13.94c-1.95-4.97-6-8.91-11.12-10.79c-5.09-1.88-10.71-1.54-15.41,0.99   l-2.99,1.62c-1.84,1-3.68,2.01-5.55,2.94c-2.28,1.11-3.51,1.1-4.22,0.96c-2.01-0.35-4.41-1.3-6.85-5.67   c-1.03-1.84-1.32-4.46,0.97-6.3c1.54-1.24,3.65-2.31,5.87-3.45l1.74-0.89c0.75-0.39,1.56-0.68,2.37-0.99   c1.28-0.49,2.56-1,3.76-1.61c9.63-4.9,14.61-13.03,14.4-23.9c0.02-0.9,0.02-1.8-0.07-2.69c-0.16-1.41-0.4-2.83-0.7-4.22   c-1.68-8.02-5.06-15.11-8.91-21.61c5.69-1.28,11.58-2.01,17.62-2.08c0.37-0.01,0.74-0.01,1.11-0.01c4.08,0,8.04,0.61,12.01,1.16   c-1.9,2.7-3.86,5.36-5.61,8.15c-3.64,5.84-5.33,11.83-5.02,17.78c0.31,5.81,3.3,10.75,8,13.22c2.05,1.07,4.3,1.6,6.6,1.6   c2.95,0,5.99-0.88,8.82-2.64c0.29-0.18,1.67-1.11,1.93-1.33l4.07-3.39c2.8-2.36,5.61-4.72,8.52-6.9c2.02-1.51,4.03-2.64,5.81-3.25   c3.36-1.16,7.18-1.6,12.51-1.41c0.21,0.01,0.4-0.09,0.6-0.1c0.77,0.71,1.66,1.22,2.41,1.96c5.84,5.77,10.7,12.23,14.62,19.16   c-5.51-0.13-11.33,0.16-17.3,1.46c-11.42,2.5-18.75,8.16-22.36,17.3c-3.76,9.45-0.53,19.51,7.85,24.49   c3.02,1.79,6.52,3.02,10.1,3.56c5.8,0.87,8.9,3.4,10.38,8.46c1.71,5.85,0.91,11.09-2.47,16c-3.61,5.24-5.93,10.82-6.9,16.63   c-1.2,7.18-0.31,13.54,2.65,18.96C298.08,285.44,278.45,293.75,256.98,294z M325.25,258.78c0.01-1.07-0.2-1.96,0.01-3.2   c0.62-3.68,2.07-7.14,4.46-10.6c5.94-8.62,7.51-18.55,4.53-28.72c-3.13-10.73-10.93-17.33-22.55-19.08   c-1.64-0.24-3.34-0.83-4.67-1.63c-2.9-1.72-2.06-4.8-1.56-6.06c1.74-4.39,5.11-6.76,11.64-8.19c7.14-1.56,14.39-1.31,20.92-0.69   c2.85,8.64,4.39,17.75,4.39,27.12C342.32,226.8,335.89,244.44,325.25,258.78z"/></g><text x="0" y="527" fill="#000000" font-size="5px" font-weight="bold" font-family="'Helvetica Neue', Helvetica, Arial-Unicode, Arial, Sans-serif">Created by Adeel rehman</text><text x="0" y="532" fill="#000000" font-size="5px" font-weight="bold" font-family="'Helvetica Neue', Helvetica, Arial-Unicode, Arial, Sans-serif">from the Noun Project</text></svg>