<svg version="1.1" id="Layer_1" xmlns="http://www.w3.org/2000/svg" xmlns:xlink="http://www.w3.org/1999/xlink" x="0px" y="0px"
	 width="100%" viewBox="0 0 640 640" enable-background="new 0 0 640 640" xml:space="preserve">
<path fill="#000000" opacity="1.000000" stroke="none" 
	d="
M500.409668,386.661011 
	C522.999939,421.101746 524.492188,456.294769 505.536316,492.299408 
	C503.454254,496.254028 503.822937,498.539093 507.093170,501.094086 
	C509.183624,502.727325 510.982483,504.733948 512.910706,506.574646 
	C514.829712,508.406677 516.747070,510.240540 518.869690,512.269104 
	C521.583130,511.429840 522.998535,508.792328 525.067200,506.992432 
	C528.977478,503.590088 531.930298,503.378540 535.563538,506.996246 
	C555.047913,526.397400 574.749207,545.595276 593.760193,565.452576 
	C607.700562,580.013672 606.492310,602.911072 592.066833,616.767822 
	C578.367249,629.927307 555.389893,629.737061 541.337280,615.924622 
	C522.321594,597.234009 503.579498,578.264709 484.752686,559.382324 
	C480.352600,554.969299 480.434601,551.928162 484.732971,547.403870 
	C486.310272,545.743652 488.333252,544.440186 490.493286,540.798340 
	C485.748901,536.636108 480.901245,532.583801 476.303833,528.265076 
	C474.014801,526.114868 472.263397,527.030823 470.100281,528.258667 
	C453.637329,537.603271 435.947937,542.339294 417.000275,541.318604 
	C376.413513,539.132446 347.923370,518.832581 330.660095,482.458771 
	C328.759277,478.453705 326.746429,477.197876 322.493744,477.220001 
	C290.329285,477.387390 258.163574,477.321014 225.998230,477.310120 
	C203.733917,477.302582 190.280258,464.321960 189.976303,442.207214 
	C189.914658,437.722290 188.700882,436.034546 184.001953,436.201050 
	C175.350098,436.507660 166.594543,436.942841 158.029388,435.994690 
	C141.109619,434.121765 130.094589,419.739655 130.041809,400.327667 
	C129.942154,363.662750 129.975449,326.997437 129.968094,290.332306 
	C129.956772,233.834656 129.957016,177.337006 129.954208,120.839363 
	C129.953690,110.439743 132.611908,101.072701 140.624863,93.856857 
	C146.560471,88.511711 153.592178,85.692390 161.552063,85.686676 
	C231.049149,85.636726 300.546356,85.611412 370.043365,85.693344 
	C387.205597,85.713570 401.098114,99.780746 401.341461,116.922241 
	C401.360382,118.255287 401.487183,119.605507 401.327179,120.918922 
	C400.830780,124.993874 402.820312,126.021339 406.570923,126.040466 
	C414.724701,126.082031 422.883392,125.576614 431.038635,126.503006 
	C449.895844,128.645065 461.315460,141.237244 461.324158,160.355621 
	C461.352448,222.353043 461.401367,284.350739 461.200012,346.347534 
	C461.181732,351.980774 462.438599,355.231628 467.834106,357.963593 
	C480.944122,364.601685 491.697693,374.295410 500.409668,386.661011 
M202.087067,184.500000 
	C202.081772,234.665665 202.074066,284.831329 202.071945,334.997009 
	C202.070389,371.329895 201.990707,407.663116 202.124863,443.995514 
	C202.172134,456.798187 210.139252,464.980469 222.488495,465.022858 
	C254.821075,465.133820 287.154419,465.010559 319.487244,465.080261 
	C323.340240,465.088562 324.613098,464.268738 323.912842,459.913605 
	C316.663422,414.826385 338.976715,377.078217 372.172363,358.408051 
	C376.218475,356.132355 377.778168,353.767517 377.749817,349.123688 
	C377.554504,317.125214 377.637390,285.124908 377.661743,253.125214 
	C377.666138,247.353668 379.145294,245.595764 384.887177,245.233948 
	C390.035400,244.909546 395.214569,244.999237 400.379303,245.032013 
	C408.665405,245.084625 410.324371,246.779114 410.326416,255.001022 
	C410.333435,283.334106 410.404480,311.667572 410.250061,339.999847 
	C410.226440,344.328979 411.499176,345.977020 415.941742,345.754913 
	C422.585327,345.422729 429.242798,345.533813 435.860168,346.684814 
	C440.211945,347.441711 444.473663,348.939850 448.863983,348.873047 
	C450.064087,346.912170 449.625153,345.031952 449.628906,343.243561 
	C449.665558,325.910461 449.651154,308.577271 449.651001,291.244080 
	C449.650574,247.744461 449.678467,204.244812 449.632599,160.745239 
	C449.618378,147.270737 441.379791,138.280304 428.812500,138.267899 
	C359.979858,138.199936 291.147095,138.199631 222.314438,138.263351 
	C210.596695,138.274200 202.284943,146.738815 202.120819,158.500778 
	C202.004562,166.832397 202.090378,175.166824 202.087067,184.500000 
M336.500000,125.999840 
	C352.493439,125.996567 368.486938,126.014740 384.480225,125.965309 
	C386.703857,125.958435 389.153046,126.460220 389.687378,122.910393 
	C391.765137,109.106575 382.171906,97.355362 368.349396,97.345131 
	C300.043518,97.294548 231.737534,97.346252 163.431625,97.304932 
	C150.078857,97.296852 141.882507,108.545433 142.060104,118.801018 
	C142.561966,147.780579 142.220764,176.774673 142.218613,205.763046 
	C142.213821,270.570374 142.529266,335.380280 142.001694,400.183350 
	C141.859406,417.661346 153.525833,425.587189 166.501816,424.729401 
	C172.639252,424.323700 178.831863,424.490448 184.987473,424.720032 
	C188.694870,424.858276 189.996124,423.509674 189.931656,419.825745 
	C189.762604,410.165924 189.878387,400.501190 189.875870,390.838409 
	C189.855942,314.035889 189.833023,237.233353 189.816010,160.430832 
	C189.813187,147.642303 194.768326,137.463501 205.868576,130.727600 
	C212.504684,126.700645 220.000961,126.014389 227.543320,126.006523 
	C263.528839,125.969002 299.514435,125.995964 336.500000,125.999840 
M481.248871,382.257568 
	C459.896240,361.953522 434.539459,353.975739 405.549927,358.608002 
	C354.645538,366.742065 321.895111,421.773102 338.638611,470.510071 
	C353.941803,515.054688 398.923767,539.145569 444.441284,526.442688 
	C479.817719,516.570007 503.891296,485.545807 506.505737,450.481934 
	C508.448853,424.421997 500.092865,401.638031 481.248871,382.257568 
M517.352356,575.169434 
	C528.050049,585.914551 538.610229,596.801331 549.485779,607.363281 
	C559.505493,617.094055 575.194885,617.190125 584.169189,607.962952 
	C594.234680,597.613770 594.285339,582.353088 584.099121,572.095642 
	C567.541870,555.422546 550.822815,538.909790 534.311401,522.191833 
	C531.471985,519.316833 529.600952,519.005310 526.666626,522.084839 
	C519.196228,529.925049 511.378082,537.432678 503.780151,545.153198 
	C501.249908,547.724365 498.245087,549.909546 496.150421,553.680054 
	C503.078003,560.700134 509.959290,567.673279 517.352356,575.169434 
M398.599274,343.836273 
	C398.619263,316.691315 398.603943,289.546265 398.704498,262.401581 
	C398.716919,259.052704 398.159210,257.152374 394.130585,257.118011 
	C389.910736,257.082062 389.224548,259.008667 389.238861,262.621918 
	C389.342377,288.767578 389.279633,314.913879 389.334320,341.059845 
	C389.338196,342.917450 388.407318,345.645447 390.927429,346.271667 
	C393.438171,346.895599 396.564819,347.959473 398.599274,343.836273 
M488.196381,514.661621 
	C486.985168,516.166443 484.885590,517.005493 484.711121,518.860779 
	C489.411011,523.724487 493.890411,528.359985 497.909088,532.518738 
	C501.971802,528.646240 505.975159,524.830383 509.360504,521.603577 
	C504.941467,516.906250 500.537903,512.225342 495.069183,506.412201 
	C492.887115,509.067932 490.789856,511.620483 488.196381,514.661621 
z"/>
<path fill="#000000" opacity="1.000000" stroke="none" 
	d="
M344.111389,256.817017 
	C348.753418,256.819977 352.914520,256.736603 357.070129,256.851379 
	C362.509644,257.001587 364.456116,258.884796 365.031891,264.360199 
	C365.170532,265.678894 365.138519,267.018463 365.138702,268.348419 
	C365.142395,294.797638 365.151428,321.246826 365.130859,347.696045 
	C365.123688,356.909790 363.215820,358.843536 354.073914,358.958679 
	C349.583344,359.015259 345.088501,359.059937 340.600739,358.930939 
	C333.751953,358.734100 331.778198,356.708435 331.767975,349.751434 
	C331.727234,321.971527 331.739838,294.191498 331.752075,266.411530 
	C331.755402,258.894348 333.647644,256.993622 341.132812,256.833374 
	C341.964294,256.815582 342.796295,256.823029 344.111389,256.817017 
M352.858734,293.500000 
	C352.864075,286.847687 352.785828,280.193848 352.910461,273.543762 
	C352.971527,270.286652 351.563904,269.097931 348.411774,269.198517 
	C344.119873,269.335388 343.547028,270.667633 343.604462,277.475220 
	C343.779877,298.258362 343.732635,319.043365 343.775482,339.827667 
	C343.781738,342.864838 342.665283,346.349640 347.741974,346.720215 
	C352.829926,347.091705 352.889099,344.028656 352.875275,340.400970 
	C352.816986,325.100830 352.855560,309.800354 352.858734,293.500000 
z"/>
<path fill="#000000" opacity="1.000000" stroke="none" 
	d="
M319.347351,349.790070 
	C319.091980,356.833710 317.512878,358.651764 311.134277,358.878204 
	C305.483276,359.078827 299.809906,359.099579 294.162964,358.840088 
	C288.471252,358.578552 286.689209,356.644440 286.677185,351.111633 
	C286.628998,328.975403 286.630005,306.838989 286.678040,284.702759 
	C286.689026,279.639160 288.529572,277.783417 293.588165,277.685211 
	C299.577698,277.568970 305.571808,277.602753 311.562775,277.670532 
	C317.568817,277.738495 319.321198,279.460693 319.331360,285.406952 
	C319.367737,306.711029 319.346924,328.015167 319.347351,349.790070 
M307.652710,339.307495 
	C307.651428,324.178894 307.573730,309.049652 307.706940,293.922241 
	C307.737213,290.486603 306.631714,289.174438 303.125885,289.236969 
	C299.905396,289.294403 298.231018,290.011688 298.261536,293.694061 
	C298.396484,309.985291 298.366699,326.278412 298.290955,342.570343 
	C298.277161,345.536865 299.382812,346.504364 302.355865,346.779236 
	C307.797729,347.282349 307.911652,344.049805 307.652710,339.307495 
z"/>
<path fill="#000000" opacity="1.000000" stroke="none" 
	d="
M240.818466,333.999512 
	C240.820648,324.009308 240.774506,314.518646 240.840668,305.028748 
	C240.889908,297.966705 243.078384,295.859131 250.170868,295.827728 
	C255.498642,295.804169 260.829254,295.724976 266.153809,295.860291 
	C271.716797,296.001648 274.114929,298.260803 274.158295,303.855591 
	C274.279541,319.505249 274.279175,335.157318 274.134979,350.806671 
	C274.086090,356.114288 271.834869,358.469574 266.542023,358.757904 
	C260.565857,359.083527 254.554260,359.084503 248.571411,358.864044 
	C243.331375,358.671021 241.079559,356.282867 240.890869,350.980957 
	C240.695572,345.493195 240.828827,339.993744 240.818466,333.999512 
M261.983521,332.491394 
	C261.982666,325.994904 261.926727,319.497772 262.004852,313.002228 
	C262.042145,309.899658 261.299347,307.910522 257.605072,307.881653 
	C254.026321,307.853699 252.986420,309.561676 253.014328,312.798767 
	C253.098984,322.625977 253.119797,332.454712 253.037262,342.281799 
	C253.010910,345.420319 254.117981,346.769196 257.414978,346.747528 
	C260.527527,346.727051 262.120789,345.804657 261.982330,342.479431 
	C261.857727,339.486725 261.973236,336.484039 261.983521,332.491394 
z"/>
<path fill="#000000" opacity="1.000000" stroke="none" 
	d="
M265.000244,391.221710 
	C259.005005,391.207397 253.509628,391.173370 248.014359,391.184296 
	C244.084320,391.192108 241.431442,389.315186 241.157242,385.433136 
	C240.864014,381.281830 243.872040,379.590302 247.532715,379.239960 
	C250.506332,378.955383 253.518768,379.028503 256.514069,379.026123 
	C278.162567,379.008911 299.811066,379.008301 321.459564,379.019043 
	C323.121124,379.019867 324.814423,378.968079 326.437378,379.255188 
	C329.636871,379.821136 331.368652,381.814484 331.439697,385.132446 
	C331.513336,388.572937 329.535248,390.352203 326.428406,390.957825 
	C324.815094,391.272308 323.114532,391.197174 321.453278,391.198853 
	C302.802246,391.217438 284.151215,391.216736 265.000244,391.221710 
z"/>
<path fill="#000000" opacity="1.000000" stroke="none" 
	d="
M279.000000,153.808716 
	C291.820312,153.811081 304.140625,153.810455 316.460938,153.820465 
	C318.454712,153.822083 320.464294,153.725815 322.336975,154.647430 
	C324.876526,155.897247 326.069733,158.004700 325.756470,160.731247 
	C325.464264,163.274872 323.917023,165.021606 321.309570,165.462875 
	C319.514557,165.766647 317.673584,165.927963 315.852814,165.930695 
	C294.042603,165.963440 272.232300,165.956421 250.422012,165.951508 
	C249.257980,165.951248 248.088623,165.934418 246.930969,165.826385 
	C243.456528,165.502167 241.274399,163.544205 241.115891,160.112442 
	C240.953079,156.588364 243.261230,154.538025 246.553314,154.039001 
	C249.162888,153.643448 251.864426,153.811996 254.525314,153.805756 
	C262.516846,153.787018 270.508423,153.805359 279.000000,153.808716 
z"/>
<path fill="#000000" opacity="1.000000" stroke="none" 
	d="
M253.085205,177.685822 
	C274.202942,177.687927 294.832611,177.686829 315.462311,177.699280 
	C317.123779,177.700287 318.818268,177.604156 320.439545,177.885925 
	C323.559235,178.428101 325.670959,180.285446 325.706116,183.575089 
	C325.740479,186.786942 323.933990,188.904999 320.721497,189.488815 
	C318.935364,189.813385 317.087891,189.917526 315.267761,189.920151 
	C294.139008,189.950577 273.010223,189.949173 251.881454,189.932358 
	C250.222977,189.931030 248.559174,189.806549 246.907333,189.643372 
	C243.118820,189.269104 241.058502,186.898346 241.210953,183.335266 
	C241.368362,179.656143 243.934479,177.824783 247.606461,177.712173 
	C249.268723,177.661194 250.933517,177.692261 253.085205,177.685822 
z"/>
<path fill="#000000" opacity="1.000000" stroke="none" 
	d="
M266.000061,213.350464 
	C259.680511,213.342834 253.859772,213.262543 248.041656,213.351852 
	C244.037354,213.413345 241.411407,211.555038 241.270981,207.664566 
	C241.126144,203.651581 243.913330,201.735977 247.775864,201.729843 
	C271.386841,201.692337 294.997955,201.695999 318.608917,201.733826 
	C322.562073,201.740173 325.753967,203.372391 325.663330,207.714355 
	C325.572754,212.053238 322.404968,213.376266 318.377838,213.363678 
	C301.085388,213.309616 283.792664,213.346451 266.000061,213.350464 
z"/>
<path fill="#000000" opacity="1.000000" stroke="none" 
	d="
M268.999939,410.369873 
	C261.675995,410.365265 254.851562,410.310394 248.028275,410.374451 
	C244.041809,410.411896 241.400864,408.557983 241.266922,404.649506 
	C241.128220,400.601349 243.956985,398.741058 247.803787,398.733795 
	C269.440521,398.692902 291.077454,398.686707 312.714081,398.750488 
	C316.525604,398.761719 319.263245,400.584381 319.224731,404.711243 
	C319.184875,408.978699 316.148224,410.306458 312.440765,410.321289 
	C298.127350,410.378448 283.813568,410.359894 268.999939,410.369873 
z"/>
<path fill="#000000" opacity="1.000000" stroke="none" 
	d="
M273.000000,430.226074 
	C265.166718,430.225281 257.833405,430.219940 250.500122,430.226318 
	C248.490479,430.228058 246.498291,430.164398 244.628845,429.291412 
	C242.251999,428.181396 241.055771,426.196625 241.151520,423.700165 
	C241.250168,421.127258 242.782104,419.291992 245.329239,418.723694 
	C247.262482,418.292419 249.284500,418.086761 251.268051,418.080109 
	C268.434479,418.022369 285.601166,418.003693 302.767670,418.036530 
	C309.703461,418.049805 313.131866,420.209747 312.969452,424.237183 
	C312.808655,428.223053 309.367310,430.213165 302.499939,430.225677 
	C292.833313,430.243256 283.166656,430.227448 273.000000,430.226074 
z"/>
<path fill="#000000" opacity="1.000000" stroke="none" 
	d="
M296.959778,449.346344 
	C281.471680,449.347443 266.477417,449.349762 251.483139,449.347321 
	C249.983887,449.347076 248.480408,449.384125 246.986191,449.289093 
	C243.129364,449.043762 241.117432,446.674683 241.265610,443.083130 
	C241.407013,439.655212 243.704330,437.683990 247.255966,437.680389 
	C266.415100,437.661072 285.574341,437.653809 304.733337,437.713257 
	C308.540283,437.725067 310.781525,440.054108 310.761444,443.655762 
	C310.742554,447.045227 308.502930,449.122772 304.949280,449.277161 
	C302.454437,449.385498 299.952423,449.329071 296.959778,449.346344 
z"/>
<path fill="#000000" opacity="1.000000" stroke="none" 
	d="
M355.184509,476.638000 
	C343.063782,449.704315 344.203247,423.739532 361.669556,400.234283 
	C381.245270,373.890259 408.359955,365.219818 439.994385,372.968109 
	C464.335846,378.930084 487.498688,400.100983 492.521240,431.138763 
	C499.181915,472.300079 471.664551,510.281311 430.613861,516.151550 
	C400.126709,520.511230 371.507996,505.610138 355.184509,476.638000 
M363.150635,421.650360 
	C358.736023,432.990265 358.212128,444.670471 360.445190,456.489258 
	C366.366547,487.828979 399.611176,510.291229 430.815918,504.149811 
	C466.197113,497.186462 487.296112,465.961182 480.577545,430.505615 
	C475.592651,404.199280 450.347504,382.841949 423.566376,382.274292 
	C395.735626,381.684418 374.964020,395.015778 363.150635,421.650360 
z"/>
</svg>