<?xml version="1.0" encoding="UTF-8"?>
<svg version="1.1" xmlns="http://www.w3.org/2000/svg" width="700" height="700">
<path d="M0 0 C231 0 462 0 700 0 C700 231 700 462 700 700 C469 700 238 700 0 700 C0 469 0 238 0 0 Z " fill="#FEFEFE" transform="translate(0,0)"/>
<path d="M0 0 C1.23891495 -0.00637985 2.4778299 -0.0127597 3.75428772 -0.01933289 C5.09587566 -0.02086272 6.43746412 -0.02197606 7.77905273 -0.02270508 C9.17423028 -0.02592461 10.56940749 -0.02928919 11.96458435 -0.03279114 C14.8872048 -0.03876604 17.80979576 -0.04063293 20.73242188 -0.04003906 C24.44156777 -0.03993799 28.15051987 -0.05354009 31.85962009 -0.07081127 C34.7433302 -0.08204439 37.6269953 -0.08395478 40.51072502 -0.08342934 C42.53162436 -0.08515394 44.55250965 -0.09592841 46.57337952 -0.10697937 C58.08212433 -0.07889951 69.06421614 0.93258449 79.77514648 5.33276367 C80.54084961 5.64101074 81.30655273 5.94925781 82.09545898 6.2668457 C92.88298499 10.74722232 101.24437409 17.10434951 109.65014648 25.14526367 C110.35010742 25.77045898 111.05006836 26.3956543 111.77124023 27.03979492 C117.71866532 32.54667001 121.85361242 39.01666513 125.65014648 46.14526367 C125.65014648 46.80526367 125.65014648 47.46526367 125.65014648 48.14526367 C126.27251395 48.14336507 126.89488141 48.14146647 127.53610849 48.13951033 C164.47111414 48.02747615 201.40609454 47.94175839 238.34123549 47.88993702 C242.78193397 47.88368393 247.22263211 47.87721228 251.66333008 47.87060547 C252.98935351 47.86863814 252.98935351 47.86863814 254.34216529 47.86663107 C268.6321332 47.84490955 282.92199992 47.80550607 297.21190792 47.75949969 C311.88857993 47.71264429 326.56519916 47.68494913 341.24194288 47.6748212 C350.28902963 47.66798081 359.33583032 47.64642289 368.38282895 47.60568134 C374.59743481 47.57913064 380.81189406 47.57129037 387.02655244 47.57775678 C390.60535134 47.58094067 394.18365249 47.57626647 397.76236153 47.5492363 C417.91887987 47.40466419 435.32610607 47.70789501 450.82202148 62.17260742 C460.9429266 72.69302195 464.96391356 84.83315754 464.9108429 99.09407043 C464.91466844 100.18738778 464.91849399 101.28070513 464.92243546 102.40715331 C464.93274308 106.06575547 464.92877749 109.72420004 464.92480469 113.3828125 C464.92915242 116.00798182 464.93433577 118.63314987 464.94029236 121.25831604 C464.95302808 127.64623136 464.95483441 134.03410461 464.9524921 140.42203049 C464.95070732 145.61629074 464.95246201 150.81053825 464.95671654 156.00479698 C464.95731173 156.74475814 464.95790692 157.48471929 464.95852014 158.24710351 C464.95973193 159.75047146 464.96094606 161.25383941 464.96216252 162.75720736 C464.97303397 176.84973709 464.97087759 190.94224289 464.96477767 205.03477397 C464.95961031 217.91539073 464.97085986 230.79593182 464.98987589 243.67653362 C465.00926805 256.91377593 465.01750778 270.15098248 465.01375264 283.38823909 C465.0118425 290.81532226 465.01430978 298.24234105 465.02846718 305.66941261 C465.04164899 312.65521099 465.03910221 319.6408557 465.02605629 326.62665367 C465.02369067 329.18803839 465.02642465 331.74943376 465.03467941 334.31080627 C465.04514944 337.81254807 465.03704343 341.31378224 465.02436829 344.81550598 C465.03174257 345.82437687 465.03911686 346.83324776 465.0467146 347.8726905 C464.94578182 361.16612426 459.80533213 373.57266394 450.66967773 383.30541992 C436.01134343 396.65953106 419.40050398 397.88347688 400.62280273 397.63354492 C398.53674678 397.62419744 396.45067971 397.6170905 394.36460876 397.61210632 C388.9245369 397.59318877 383.48515279 397.54422249 378.04534912 397.48858643 C372.47425637 397.43706175 366.90305042 397.41452193 361.33178711 397.3894043 C350.43755905 397.33608621 339.54401806 397.24827826 328.65014648 397.14526367 C328.65014648 403.41526367 328.65014648 409.68526367 328.65014648 416.14526367 C330.35041992 416.11045898 332.05069336 416.0756543 333.80249023 416.03979492 C336.06419904 416.01164087 338.32591862 415.98434245 340.58764648 415.95776367 C342.26310547 415.92005859 342.26310547 415.92005859 343.97241211 415.8815918 C355.34276803 415.78155934 362.18001954 417.82849299 370.47827148 425.72729492 C382.61411506 439.23824307 377.65014648 456.27596472 377.65014648 474.14526367 C233.77014648 474.14526367 89.89014648 474.14526367 -58.34985352 474.14526367 C-58.34985352 455.00526367 -58.34985352 435.86526367 -58.34985352 416.14526367 C-64.28985352 416.14526367 -70.22985352 416.14526367 -76.34985352 416.14526367 C-98.35425165 412.60218262 -115.15313654 402.03204885 -129.17407227 384.91870117 C-135.45783982 375.74779718 -136.60428262 364.31135114 -134.95141602 353.55151367 C-133.17562466 346.26385044 -128.93249565 340.94706154 -124.34985352 335.14526367 C-123.19986255 333.62757173 -122.05353271 332.10709241 -120.91235352 330.58276367 C-120.43926758 329.96272461 -119.96618164 329.34268555 -119.47875977 328.70385742 C-116.14947085 324.10736512 -116.75387329 318.58443949 -117.34985352 313.14526367 C-119.15079202 308.41275262 -122.46133728 305.00303837 -125.84985352 301.33276367 C-133.37856794 293.03145192 -135.6988307 283.41056045 -135.55297852 272.52026367 C-134.94275208 262.38111673 -130.53888191 255.96912975 -124.34985352 248.14526367 C-123.19921826 246.64894401 -122.05281568 245.14935146 -120.91235352 243.64526367 C-120.43926758 243.03682617 -119.96618164 242.42838867 -119.47875977 241.80151367 C-117.38432302 238.72870682 -117.22267685 236.00700787 -117.21182251 232.40811157 C-117.20636917 231.43305161 -117.20091583 230.45799164 -117.19529724 229.4533844 C-117.19373375 227.84994423 -117.19373375 227.84994423 -117.19213867 226.21411133 C-117.18705795 225.0867305 -117.18197723 223.95934967 -117.17674255 222.79780579 C-117.16602517 220.34242154 -117.15741038 217.88702744 -117.15062332 215.43162918 C-117.13881948 211.52739671 -117.11935568 207.62327412 -117.09750366 203.71908569 C-117.03576325 192.61509207 -116.98190692 181.51109996 -116.94848633 170.40698242 C-116.92795398 163.61472604 -116.89188411 156.82267177 -116.84772873 150.03052902 C-116.83370048 147.4577809 -116.82487659 144.88499827 -116.82167435 142.3122139 C-116.78673637 116.89683219 -114.96684721 93.14624546 -103.34985352 70.14526367 C-102.8484082 69.12045898 -102.34696289 68.0956543 -101.83032227 67.03979492 C-87.33290857 38.62214793 -61.56195019 17.1579872 -31.75610352 6.23901367 C-21.48969139 2.94245932 -10.82738493 0.03805892 0 0 Z " fill="#030303" transform="translate(185.349853515625,125.854736328125)"/>
<path d="M0 0 C36.64665066 -0.09159168 73.29328123 -0.16205707 109.94002282 -0.20426132 C114.26828363 -0.20926404 118.59654421 -0.21444134 122.92480469 -0.21972656 C124.21730153 -0.22130043 124.21730153 -0.22130043 125.53590943 -0.22290608 C139.48071969 -0.24030272 153.42546387 -0.27183632 167.37023495 -0.30861118 C181.68301618 -0.34604125 195.99576284 -0.36824022 210.30859101 -0.37635398 C219.13761469 -0.38183747 227.96645157 -0.39914527 236.79541774 -0.43166587 C242.85298446 -0.45283926 248.91045487 -0.45919366 254.96805589 -0.45400551 C258.4609824 -0.4514481 261.95358291 -0.45531812 265.44645119 -0.4768219 C269.23985879 -0.4967577 273.03247074 -0.49192485 276.82589722 -0.48101807 C277.92125286 -0.49266943 279.0166085 -0.5043208 280.14515674 -0.51632524 C288.32269419 -0.45288598 294.77372964 1.40660682 301.75 5.6875 C309.7931768 13.95409838 312.32459282 22.53452217 312.24050903 33.82055664 C312.24307709 35.09569374 312.24307709 35.09569374 312.24569702 36.39659119 C312.24898937 39.23453336 312.2379899 42.07223589 312.22705078 44.91015625 C312.22643773 46.98367811 312.22670575 49.05720038 312.2277813 51.13072205 C312.22823194 56.67253125 312.21665855 62.21425371 312.20256042 67.75604248 C312.19115218 72.96041124 312.19063318 78.16475914 312.18920898 83.36914062 C312.17872342 98.57943853 312.15080103 113.78972037 312.125 129 C312.08375 162.99 312.0425 196.98 312 232 C197.49 232 82.98 232 -35 232 C-29 223 -29 223 -26.375 219.1875 C-23.26661663 214.17010949 -21.57079546 208.65897929 -20 203 C-19.80744629 202.36070557 -19.61489258 201.72141113 -19.41650391 201.06274414 C-18.19965041 196.52865114 -17.97362248 192.67273357 -18.359375 187.98828125 C-19.63446018 169.58551466 -19.63446018 169.58551466 -13.47134399 161.95344543 C-7.9108476 155.68709092 -1.55138296 150.20231056 5 145 C0.50835136 139.57806203 -4.30152366 134.64668302 -9.40820312 129.80664062 C-9.95798828 129.27103516 -10.50777344 128.73542969 -11.07421875 128.18359375 C-11.56494873 127.71493896 -12.05567871 127.24628418 -12.5612793 126.76342773 C-16.23647465 122.25877203 -17.37574955 118.10661225 -17.41650391 112.37133789 C-17.43307037 111.07301529 -17.44963684 109.77469269 -17.46670532 108.43702698 C-17.4701596 107.03223714 -17.47344109 105.62744687 -17.4765625 104.22265625 C-17.49089081 102.76825021 -17.5066511 101.31385764 -17.52377319 99.85948181 C-17.56552113 96.03999515 -17.59057927 92.22059193 -17.61126709 88.40093994 C-17.64714298 82.29199414 -17.70842179 76.18325531 -17.76975632 70.07452202 C-17.78870423 67.95032147 -17.80053652 65.82617596 -17.81118774 63.70191956 C-17.82144989 62.40044479 -17.83171204 61.09897003 -17.84228516 59.75805664 C-17.85202866 58.04979454 -17.85202866 58.04979454 -17.86196899 56.30702209 C-18.00765568 52.81658103 -18.45085193 49.44811719 -19 46 C-18.34773438 45.72027344 -17.69546875 45.44054687 -17.0234375 45.15234375 C-9.03521883 41.48813135 -4.45918546 37.4971338 -0.625 29.5625 C2.36376127 21.46432112 1.57410556 12.18248383 0.48510742 3.75439453 C0.32502197 2.51544434 0.16493652 1.27649414 0 0 Z " fill="#FDFDFD" transform="translate(319,194)"/>
<path d="M0 0 C1.66850258 -0.01925285 1.66850258 -0.01925285 3.37071228 -0.03889465 C4.56136795 -0.04628159 5.75202362 -0.05366852 6.97875977 -0.0612793 C8.22206558 -0.06935104 9.4653714 -0.07742279 10.74635315 -0.08573914 C13.37808856 -0.09955259 16.00984169 -0.11028695 18.64160156 -0.11816406 C21.31162261 -0.12697815 23.98038908 -0.15004447 26.65039062 -0.1796875 C55.26445775 -0.49708962 55.26445775 -0.49708962 67.23266602 4.17700195 C68.03422119 4.47453369 68.83577637 4.77206543 69.66162109 5.07861328 C71.64398208 5.87783053 73.52298287 6.75699513 75.42016602 7.73950195 C76.07887695 8.0768335 76.73758789 8.41416504 77.41625977 8.76171875 C92.9937582 17.16368102 104.51394349 32.25679503 109.82373047 49.04589844 C111.18654884 53.99777674 111.62895674 58.74081573 111.67016602 63.86450195 C111.70303711 64.59733398 111.7359082 65.33016602 111.76977539 66.08520508 C111.81021317 70.16206845 111.43138172 71.93240392 108.83032227 75.1340332 C105.39874773 77.83285047 103.84733421 78.30203043 99.57298279 78.30830383 C98.09906319 78.3143161 98.09906319 78.3143161 96.59536743 78.32044983 C95.51331024 78.31992111 94.43125305 78.3193924 93.31640625 78.31884766 C92.17964951 78.32232208 91.04289276 78.32579651 89.87168884 78.32937622 C87.39552236 78.33674378 84.91934922 78.34208381 82.44317436 78.34566689 C78.52131138 78.35281959 74.59957444 78.36847866 70.67774963 78.38700867 C69.33426195 78.39334648 67.99077421 78.3996721 66.64728642 78.40598583 C65.97432628 78.40915164 65.30136614 78.41231745 64.60801327 78.4155792 C55.4776242 78.45761221 46.34727618 78.4905975 37.21679688 78.50292969 C30.39976893 78.51223181 23.58306489 78.54238538 16.76616096 78.5842495 C14.1695398 78.59655013 11.57287424 78.60168248 8.9762249 78.59945107 C5.33537302 78.59709298 1.69541801 78.61930688 -1.9453125 78.64697266 C-3.01320007 78.64037125 -4.08108765 78.63376984 -5.18133545 78.62696838 C-16.05376766 78.76220403 -24.34268772 82.96756872 -32.32983398 90.30200195 C-39.09865353 97.25092313 -41.7925257 105.42610357 -42.08374023 114.91137695 C-42.12563477 116.20688477 -42.1675293 117.50239258 -42.21069336 118.8371582 C-42.2505007 120.20043672 -42.29021304 121.56371801 -42.32983398 122.92700195 C-42.37305673 124.30592071 -42.41667219 125.68482721 -42.46069336 127.0637207 C-42.56677356 130.43471386 -42.66883248 133.80578022 -42.76733398 137.17700195 C-43.57847656 137.43384766 -44.38961914 137.69069336 -45.2253418 137.95532227 C-46.29623047 138.30175781 -47.36711914 138.64819336 -48.47045898 139.00512695 C-49.52910156 139.34447266 -50.58774414 139.68381836 -51.6784668 140.03344727 C-56.27577961 141.7354559 -59.95934491 144.12490584 -63.76733398 147.17700195 C-64.45569336 147.7287207 -65.14405273 148.28043945 -65.85327148 148.84887695 C-74.28702793 156.41017583 -79.79142994 167.90974615 -80.76733398 179.17700195 C-80.84854492 180.10899414 -80.92975586 181.04098633 -81.01342773 182.0012207 C-81.57379421 194.99153452 -76.94857054 206.6071377 -68.80249023 216.58325195 C-61.51593692 224.48909642 -52.98724549 228.32190361 -42.76733398 231.17700195 C-42.64054243 238.77569766 -42.55298554 246.37412054 -42.49267578 253.97363281 C-42.46753397 256.55869745 -42.43341583 259.14369102 -42.39013672 261.72851562 C-42.32947476 265.44459569 -42.30111979 269.15973581 -42.27905273 272.8762207 C-42.25324631 274.03159836 -42.22743988 275.18697601 -42.20085144 276.37736511 C-42.19803653 284.43284176 -42.19803653 284.43284176 -45.14550781 288.28564453 C-46.01071045 288.90979248 -46.87591309 289.53394043 -47.76733398 290.17700195 C-59.03307544 302.02047374 -62.19561544 317.11410457 -62.27905273 332.9387207 C-62.29700394 334.21052689 -62.31495514 335.48233307 -62.33345032 336.79267883 C-62.37810781 340.13482001 -62.41058416 343.47660625 -62.43688965 346.81890869 C-62.46694437 350.24504459 -62.51338729 353.67095688 -62.55834961 357.09692383 C-62.64292473 363.7901788 -62.71141558 370.48344947 -62.76733398 377.17700195 C-66.11881687 377.23745073 -69.4701573 377.27373499 -72.82202148 377.3059082 C-73.76392334 377.3231897 -74.7058252 377.34047119 -75.67626953 377.35827637 C-89.80336608 377.45984373 -101.86339092 370.89413889 -112.14233398 361.36450195 C-116.88085959 356.32372471 -120.81610636 350.21719976 -121.45483398 343.17700195 C-120.87436386 335.17941351 -114.49999804 328.7432088 -109.37280273 323.10668945 C-102.8222536 315.23328003 -100.86246657 305.17504523 -101.76733398 295.17700195 C-103.08618579 286.16702424 -107.14906841 280.17593771 -112.76733398 273.17700195 C-117.67638074 266.87150863 -120.90932764 262.62693191 -121.13061523 254.3371582 C-120.16599176 248.60127882 -116.56798536 244.54044728 -112.82983398 240.30200195 C-103.6948131 229.64667139 -101.45646144 219.99772341 -101.52783203 206.14331055 C-101.52581787 204.95828445 -101.52380371 203.77325836 -101.52172852 202.55232239 C-101.51727111 199.31790781 -101.52119193 196.08361558 -101.52727485 192.84920835 C-101.53027319 189.43619573 -101.51807505 186.02324846 -101.50630188 182.61026001 C-101.46876265 171.00782656 -101.45027393 159.40547013 -101.46191406 147.80297852 C-101.46819341 141.38543813 -101.45622952 134.96817759 -101.42546874 128.55070555 C-101.41008167 125.16950249 -101.40645887 121.78931132 -101.42004967 118.40803146 C-101.5509094 84.35825814 -94.1268987 55.42970987 -69.76733398 30.73950195 C-64.49669543 25.56135552 -59.09375267 21.03263035 -52.76733398 17.17700195 C-51.8353418 16.58532227 -50.90334961 15.99364258 -49.94311523 15.3840332 C-35.43217817 6.48778551 -17.19492722 0.17418291 0 0 Z " fill="#FDFDFD" transform="translate(189.767333984375,144.822998046875)"/>
<path d="M0 0 C0.79761749 -0.00708481 1.59523499 -0.01416962 2.41702271 -0.02146912 C3.28310654 -0.0189917 4.14919037 -0.01651428 5.04151917 -0.01396179 C5.96066101 -0.01907272 6.87980286 -0.02418365 7.82679749 -0.02944946 C10.86531586 -0.04335022 13.90360754 -0.04238835 16.94215393 -0.04008484 C19.05438318 -0.04397143 21.16661166 -0.04830603 23.27883911 -0.05307007 C27.70643141 -0.06053327 32.13394397 -0.0602402 36.5615387 -0.05497742 C42.23557465 -0.04918198 47.90928427 -0.06611523 53.58326626 -0.08932209 C57.94557606 -0.10405314 62.30780714 -0.10493199 66.67013741 -0.10181236 C68.7621176 -0.10232587 70.85410218 -0.10756905 72.94605827 -0.11762428 C75.87132356 -0.12995932 78.7959516 -0.12321452 81.72120667 -0.11161804 C82.58526627 -0.11926178 83.44932587 -0.12690552 84.33956909 -0.13478088 C89.02460682 -0.09372543 92.16334038 0.18748137 95.94606018 3.26069641 C98.30508675 6.79923627 98.19209971 8.26243675 98.18556213 12.4535675 C98.18929337 13.73275055 98.1930246 15.01193359 98.1968689 16.32987976 C98.19456583 17.01416424 98.19226276 17.69844872 98.18988991 18.40346909 C98.18427879 20.55818793 98.19348862 22.71237179 98.20709229 24.86705017 C98.24411487 30.99356745 98.26286728 37.11991015 98.2514801 43.24653625 C98.24556552 46.99802093 98.26420284 50.74876229 98.297369 54.50009537 C98.30523368 55.91836592 98.30416961 57.3367195 98.2933445 58.75497055 C98.20761462 70.50746488 100.02402893 81.90633113 108.25856018 90.82319641 C111.94606018 94.86513264 111.94606018 94.86513264 111.94606018 99.26069641 C110.24453178 102.46640097 108.05701372 104.42215663 104.94606018 106.26069641 C99.98393918 107.22207339 95.07376705 107.07810132 90.04371643 106.94429016 C88.59642949 106.93121727 87.14911135 106.92126108 85.70178223 106.91427612 C81.91159457 106.88768155 78.12331618 106.81904086 74.33387756 106.74134827 C70.45942509 106.66944848 66.58466086 106.63770812 62.70973206 106.60249329 C55.12097554 106.52765515 47.53378642 106.40835365 39.94606018 106.26069641 C40.21890487 109.78532501 40.51054065 113.3081621 40.80543518 116.83100891 C40.88197327 117.82270081 40.95851135 118.8143927 41.03736877 119.83613586 C42.28527268 134.4293422 48.43135334 144.9250332 59.51246643 154.43647766 C63.387044 157.34085603 67.50276198 159.37287023 71.94606018 161.26069641 C73.36918518 161.87944641 73.36918518 161.87944641 74.82106018 162.51069641 C79.79543099 163.70454541 84.84986759 163.94733829 89.94606018 164.26069641 C86.12314768 172.86224953 78.92519591 177.53752568 70.57887268 181.33882141 C68.37929321 182.13724528 66.22706746 182.74137777 63.94606018 183.26069641 C63.17906799 183.44889954 62.41207581 183.63710266 61.62184143 183.83100891 C55.00681004 185.0027536 50.40930191 183.19186311 44.32887268 180.60444641 C34.98300955 176.89200194 24.66576041 175.13686979 14.64137268 175.12788391 C13.95856232 175.12692719 13.27575195 175.12597046 12.57225037 175.12498474 C11.1351665 175.12430779 9.69807949 175.12612806 8.26100159 175.13032532 C6.08433508 175.13566385 3.90787646 175.13037237 1.73121643 175.12397766 C0.32626807 175.12463885 -1.07868017 175.12592086 -2.48362732 175.12788391 C-4.37444031 175.12957581 -4.37444031 175.12957581 -6.30345154 175.13130188 C-10.23599152 175.26697733 -14.14944571 175.77263465 -18.05393982 176.26069641 C-18.05393982 156.46069641 -18.05393982 136.66069641 -18.05393982 116.26069641 C-23.33393982 116.26069641 -28.61393982 116.26069641 -34.05393982 116.26069641 C-42.15858036 113.72799624 -49.06862616 108.98697759 -53.49143982 101.57319641 C-57.03693916 94.05673781 -57.21598215 85.44788537 -55.40550232 77.36616516 C-52.66266266 69.73544458 -47.99218194 64.58552691 -40.80393982 60.88569641 C-35.73102158 58.55215402 -31.40885625 58.13526941 -25.86643982 58.19819641 C-25.11684998 58.20270813 -24.36726013 58.20721985 -23.59495544 58.21186829 C-21.74791599 58.22363287 -19.90091769 58.24156776 -18.05393982 58.26069641 C-18.0801239 56.96970032 -18.10630798 55.67870422 -18.13328552 54.34858704 C-18.22417169 49.53300994 -18.28132861 44.71750781 -18.32859802 39.90132141 C-18.35365487 37.82176439 -18.38771003 35.74229468 -18.43113708 33.66304016 C-18.49217827 30.66412247 -18.52023824 27.66637463 -18.54222107 24.66694641 C-18.5680275 23.74579041 -18.59383392 22.8246344 -18.62042236 21.87556458 C-18.62318739 15.43032178 -17.15969863 11.26154889 -13.05393982 6.26069641 C-9.11781299 2.61257886 -5.46382704 0.01624685 0 0 Z " fill="#FDFDFD" transform="translate(184.05393981933594,241.7393035888672)"/>
<path d="M0 0 C120.45 0 240.9 0 365 0 C365 39.96226415 365 39.96226415 356.6875 50 C349.78841319 56.18955272 342.5695981 58.14690867 333.47268677 58.1673584 C332.59160401 58.17315178 331.71052126 58.17894517 330.80273902 58.18491411 C327.83871287 58.20300876 324.87470579 58.21385543 321.91064453 58.22460938 C319.79026108 58.2357823 317.6698794 58.24729555 315.54949951 58.25912476 C308.57729555 58.29570042 301.60507341 58.3208982 294.6328125 58.34375 C293.44754392 58.34769587 292.26227534 58.35164173 291.04108953 58.35570717 C279.86872773 58.39211696 268.69635968 58.42356849 257.52395821 58.44481659 C243.21993283 58.47242068 228.91640177 58.5232484 214.61258233 58.60529089 C204.56157629 58.66099592 194.51070478 58.69003985 184.45954978 58.6992898 C178.45254189 58.70555948 172.44611359 58.72379054 166.43927383 58.77067566 C160.79038598 58.81422206 155.1423971 58.82486735 149.49337006 58.81004715 C147.41845558 58.81037682 145.34350351 58.82273204 143.26874161 58.84789658 C140.43849097 58.88041709 137.61156205 58.86991397 134.78128052 58.84851074 C133.54552912 58.8780724 133.54552912 58.8780724 132.28481305 58.90823126 C126.82185848 58.80368674 126.82185848 58.80368674 124.41509986 56.45014286 C123.15459014 54.68281271 122.08246511 52.8790951 121 51 C112.78190158 42.91801916 101.64298464 39.64855641 90.39794922 39.61938477 C79.55220475 39.8607517 71.98364653 44.32856931 64.15625 51.62109375 C61.85155444 53.93129937 61.85155444 53.93129937 60.56640625 57.04296875 C56.33721204 61.91587593 50.56011512 62.47554512 44.4375 63.875 C43.19291016 64.18179688 41.94832031 64.48859375 40.66601562 64.8046875 C31.61525181 67 31.61525181 67 28 67 C27.85304688 65.5459375 27.85304688 65.5459375 27.703125 64.0625 C25.37799402 42.55639342 19.47110443 25.21023228 6 8 C4.02 5.36 2.04 2.72 0 0 Z " fill="#FDFDFD" transform="translate(266,445)"/>
<path d="M0 0 C6.6 0 13.2 0 20 0 C20.33 39.6 20.66 79.2 21 120 C36.18 104.82 51.36 89.64 67 74 C70.4337694 75.7168847 71.96308272 76.73004306 74.51171875 79.36401367 C75.17921143 80.04779587 75.8467041 80.73157806 76.53442383 81.43608093 C77.24493896 82.17260391 77.9554541 82.90912689 78.6875 83.66796875 C80.20530028 85.21591544 81.72354281 86.7634286 83.2421875 88.31054688 C85.63064362 90.75494393 88.01500378 93.20300463 90.39160156 95.65893555 C92.68757087 98.02715729 94.99869556 100.37968793 97.3125 102.73046875 C98.02301514 103.47306442 98.73353027 104.2156601 99.46557617 104.98075867 C100.13306885 105.65508438 100.80056152 106.3294101 101.48828125 107.02416992 C102.07134033 107.62436447 102.65439941 108.22455902 103.25512695 108.84294128 C104.9233939 110.22551491 104.9233939 110.22551491 106.92001724 109.73880577 C109.22292837 108.92081628 110.3109684 108.05945847 112.02459717 106.33616638 C112.59384415 105.7710434 113.16309113 105.20592041 113.74958801 104.62367249 C114.36170639 104.00076828 114.97382477 103.37786407 115.60449219 102.73608398 C116.25856552 102.08244873 116.91263885 101.42881348 117.58653259 100.75537109 C119.74716658 98.59264674 121.89698004 96.41948941 124.046875 94.24609375 C125.54265988 92.74471383 127.03910838 91.2439948 128.53619385 89.74391174 C132.47522946 85.79342026 136.4051732 81.83400252 140.33331299 77.87268066 C144.34307524 73.83223378 148.36134051 69.80026315 152.37890625 65.76757812 C160.26096597 57.85334112 168.13345005 49.92965139 176 42 C179.60430766 43.68273685 181.85951096 45.68139687 184.625 48.5625 C187.51070681 51.69042054 187.51070681 51.69042054 191 54 C189.62792243 57.07678681 188.06507306 59.18280642 185.68441772 61.55609131 C185.00012192 62.24313644 184.31582611 62.93018158 183.61079407 63.63804626 C182.8605748 64.38107498 182.11035553 65.1241037 181.33740234 65.88964844 C180.15190544 67.07558342 180.15190544 67.07558342 178.94245911 68.28547668 C176.32833109 70.89821109 173.70718956 73.50378954 171.0859375 76.109375 C169.27232057 77.91926192 167.45914463 79.72959083 165.64639282 81.54034424 C161.36125966 85.81862071 157.07170349 90.09241301 152.77997172 94.36406636 C147.89336221 99.22831018 143.0124401 104.09824386 138.13198543 108.96866179 C128.09430211 118.98544799 118.04950407 128.99507421 108 139 C104.89449692 137.51558828 102.76643254 136.01111683 100.33300781 133.56005859 C99.28237152 132.50919571 99.28237152 132.50919571 98.21051025 131.43710327 C97.46557312 130.68184357 96.72063599 129.92658386 95.953125 129.1484375 C95.18192322 128.37440582 94.41072144 127.60037415 93.6161499 126.80288696 C91.15603144 124.33158077 88.70296152 121.85340817 86.25 119.375 C84.58249106 117.69745948 82.91452768 116.02037055 81.24609375 114.34375 C77.1587763 110.23439081 73.07722304 106.11937353 69 102 C60.63717142 105.69073339 54.05971676 113.74820566 47.51262379 120.02780914 C44.92599955 122.50719751 42.32200372 124.95715878 39.65454102 127.34960938 C37.0563794 129.6810664 34.52948822 132.07303183 32.03513145 134.51506042 C30.63743915 135.85320281 29.17898472 137.12698626 27.7191925 138.39709473 C16.93739672 149.23562528 20.6673559 156.64874647 20 174 C77.42 174 134.84 174 194 174 C194 180.6 194 187.2 194 194 C129.98 194 65.96 194 0 194 C0 129.98 0 65.96 0 0 Z " fill="#060606" transform="translate(340,213)"/>
<path d="M0 0 C6.6 0 13.2 0 20 0 C20 6.6 20 13.2 20 20 C26.27 20 32.54 20 39 20 C39 51.68 39 83.36 39 116 C32.73 116 26.46 116 20 116 C20 122.6 20 129.2 20 136 C13.4 136 6.8 136 0 136 C0 129.73 0 123.46 0 117 C-6.27 117 -12.54 117 -19 117 C-19 84.66 -19 52.32 -19 19 C-12.73 19 -6.46 19 0 19 C0 12.73 0 6.46 0 0 Z " fill="#050505" transform="translate(572,19)"/>
<path d="M0 0 C6.6 0 13.2 0 20 0 C20 6.27 20 12.54 20 19 C26.27 19 32.54 19 39 19 C39 51.01 39 83.02 39 116 C32.73 116 26.46 116 20 116 C20 122.6 20 129.2 20 136 C13.4 136 6.8 136 0 136 C0 129.4 0 122.8 0 116 C-6.27 116 -12.54 116 -19 116 C-19 83.99 -19 51.98 -19 19 C-12.73 19 -6.46 19 0 19 C0 12.73 0 6.46 0 0 Z " fill="#020202" transform="translate(340,0)"/>
<path d="M0 0 C6.6 0 13.2 0 20 0 C20 6.27 20 12.54 20 19 C26.27 19 32.54 19 39 19 C39 51.01 39 83.02 39 116 C32.73 116 26.46 116 20 116 C20 122.27 20 128.54 20 135 C13.4 135 6.8 135 0 135 C0 128.73 0 122.46 0 116 C-6.27 116 -12.54 116 -19 116 C-19 83.99 -19 51.98 -19 19 C-12.73 19 -6.46 19 0 19 C0 12.73 0 6.46 0 0 Z " fill="#040404" transform="translate(495,0)"/>
<path d="M0 0 C6.27 0 12.54 0 19 0 C19 6.6 19 13.2 19 20 C25.27 20 31.54 20 38 20 C38 51.68 38 83.36 38 116 C31.73 116 25.46 116 19 116 C19 122.6 19 129.2 19 136 C12.4 136 5.8 136 -1 136 C-1 129.73 -1 123.46 -1 117 C-7.27 117 -13.54 117 -20 117 C-20 84.99 -20 52.98 -20 20 C-13.4 20 -6.8 20 0 20 C0 13.4 0 6.8 0 0 Z " fill="#040404" transform="translate(418,19)"/>
<path d="M0 0 C4.88489854 2.95433983 8.78233228 7.93402248 10.95703125 13.18359375 C11.18408203 15.84082031 11.18408203 15.84082031 11.15234375 18.82421875 C11.14267578 20.42910156 11.14267578 20.42910156 11.1328125 22.06640625 C11.10767578 23.73316406 11.10767578 23.73316406 11.08203125 25.43359375 C11.07300781 26.56023438 11.06398438 27.686875 11.0546875 28.84765625 C11.03113783 31.6265174 10.99824805 34.40494765 10.95703125 37.18359375 C9.16265625 36.97863281 9.16265625 36.97863281 7.33203125 36.76953125 C-11.90482818 35.63652391 -27.27142155 44.29250531 -44.12745667 52.41925049 C-52.7454519 56.56406462 -61.49455153 60.37737461 -70.28582764 64.13766479 C-72.68544942 65.16433243 -75.08256677 66.19663642 -77.47900391 67.23071289 C-95.989103 75.20782551 -115.17920009 79.47397946 -134.75390625 71.7265625 C-147.1110591 65.92956087 -157.85290908 58.25124195 -166.04296875 47.18359375 C-165.71296875 46.19359375 -165.38296875 45.20359375 -165.04296875 44.18359375 C-162.48022275 43.18981445 -159.97955884 42.35286399 -157.35546875 41.55859375 C-145.91498117 37.81482993 -136.25675443 32.08186157 -128.04296875 23.18359375 C-127.38296875 23.18359375 -126.72296875 23.18359375 -126.04296875 23.18359375 C-125.58894339 28.45353097 -127.09089566 32.02367866 -129.54296875 36.55859375 C-129.87683594 37.19925781 -130.21070313 37.83992187 -130.5546875 38.5 C-131.37323326 40.06693046 -132.20661388 41.62609616 -133.04296875 43.18359375 C-131.68558594 43.61478516 -131.68558594 43.61478516 -130.30078125 44.0546875 C-127.667658 44.96712469 -125.36522074 45.94320453 -122.91796875 47.24609375 C-120.30737601 48.63526459 -117.93817737 49.55951545 -115.04296875 50.18359375 C-114.81609375 49.37921875 -114.58921875 48.57484375 -114.35546875 47.74609375 C-113.92234375 46.57046875 -113.48921875 45.39484375 -113.04296875 44.18359375 C-112.80070557 43.46333008 -112.55844238 42.74306641 -112.30883789 42.00097656 C-110.60029208 37.99097659 -109.20375171 35.71500933 -105.15844727 33.86303711 C-101.51293795 32.85153774 -97.88509876 32.0749152 -94.16796875 31.37109375 C-92.83916369 31.09071641 -91.5111935 30.80635355 -90.18408203 30.51806641 C-87.60381919 29.96061031 -85.02213676 29.42171977 -82.43554688 28.89306641 C-78.54737136 28.07995198 -74.74599266 27.11678098 -70.91796875 26.05859375 C-69.81324219 25.75824219 -68.70851563 25.45789063 -67.5703125 25.1484375 C-65.82427734 24.67083984 -65.82427734 24.67083984 -64.04296875 24.18359375 C-61.68451401 23.54565532 -59.32509172 22.91173471 -56.96411133 22.28320312 C-55.32321314 21.84575931 -53.6836843 21.40314248 -52.0456543 20.95507812 C-48.34937097 19.96266583 -44.73124775 19.08245385 -40.93359375 18.5859375 C-34.17883085 17.83549397 -34.17883085 17.83549397 -29.1328125 13.765625 C-28.16221576 11.84772584 -27.25171983 9.89812802 -26.40625 7.921875 C-24.31369156 3.71877052 -21.08036915 1.43902852 -17.04296875 -0.81640625 C-11.25805504 -2.74471082 -5.58776345 -2.30343701 0 0 Z " fill="#FCFCFC" transform="translate(368.04296875,504.81640625)"/>
<path d="M0 0 C7.8810284 6.72034675 12.28312043 14.1223577 15.72265625 23.7890625 C16.01921112 24.59984756 16.31576599 25.41063263 16.62130737 26.24598694 C17.55690736 28.81070439 18.47967475 31.37982509 19.40234375 33.94921875 C20.02783363 35.66761357 20.65412949 37.38571523 21.28125 39.10351562 C22.96571127 43.73295932 24.64428626 48.36385489 26.27734375 53.01171875 C26.56414001 53.8224585 26.85093628 54.63319824 27.14642334 55.46850586 C27.42278625 56.26836914 27.69914917 57.06823242 27.98388672 57.89233398 C28.36068069 58.97562233 28.36068069 58.97562233 28.74508667 60.08079529 C29.47847693 62.74139016 29.30204033 64.45912636 28.27734375 67.01171875 C20.75234472 78.43359228 7.63025282 86.08622583 -5.41015625 89.38671875 C-6.84340397 89.62253647 -8.28147434 89.83060074 -9.72265625 90.01171875 C-10.53347656 90.16382813 -11.34429687 90.3159375 -12.1796875 90.47265625 C-15.0066641 90.79400228 -16.97617683 90.7840305 -19.72265625 90.01171875 C-23.28339671 87.11749126 -25.9188863 83.62293482 -28.72265625 80.01171875 C-30.18732415 78.35296942 -31.66642293 76.70684306 -33.16015625 75.07421875 C-34.26617187 73.84058594 -34.26617187 73.84058594 -35.39453125 72.58203125 C-37.01532328 70.79263334 -38.65202724 69.01757342 -40.30078125 67.25390625 C-50.45326741 56.34150346 -57.33780816 46.93544034 -57.16015625 31.63671875 C-57.15040771 30.70496826 -57.14065918 29.77321777 -57.13061523 28.81323242 C-56.84568824 17.80732369 -53.86828164 11.28456879 -46.23046875 3.28125 C-33.61602596 -8.13462424 -14.10546518 -10.30083469 0 0 Z " fill="#FDFDFD" transform="translate(203.72265625,441.98828125)"/>
<path d="M0 0 C19.14 0 38.28 0 58 0 C58 25.74 58 51.48 58 78 C38.86 78 19.72 78 0 78 C0 52.26 0 26.52 0 0 Z " fill="#050505" transform="translate(553,329)"/>
<path d="M0 0 C1.72718901 -0.0054267 3.45437339 -0.01255243 5.18154907 -0.02124023 C9.85074088 -0.03940595 14.5195774 -0.03243554 19.18877506 -0.01972389 C24.08181245 -0.00956764 28.97482026 -0.01899624 33.86785889 -0.02526855 C42.07895348 -0.03253457 50.28990388 -0.02298186 58.50097656 -0.00390625 C67.99251617 0.01788948 77.48371243 0.01078734 86.97524381 -0.01121187 C95.13257831 -0.02936111 103.28980946 -0.0319274 111.44715762 -0.0214572 C116.31593632 -0.01522338 121.18455353 -0.01438417 126.05332184 -0.02760315 C130.62698339 -0.03915512 135.20020152 -0.031148 139.77381516 -0.00802612 C141.4519998 -0.00273677 143.13022177 -0.0042567 144.80839157 -0.01307678 C147.09910375 -0.02400675 149.38839454 -0.01030181 151.67901611 0.00964355 C152.9606023 0.01115166 154.24218849 0.01265976 155.56261063 0.01421356 C159.50064635 0.6079279 161.10082831 1.74003642 163.90136719 4.51757812 C165.90136719 7.51757812 165.90136719 7.51757812 165.90136719 20.51757812 C91.65136719 20.51757812 17.40136719 20.51757812 -59.09863281 20.51757812 C-57.53211805 17.3845486 -54.40813558 16.7142921 -51.31738281 15.40039062 C-50.62986938 15.10196259 -49.94235596 14.80353455 -49.23400879 14.49606323 C-47.02482951 13.53872098 -44.81187221 12.59049096 -42.59863281 11.64257812 C-41.13743149 11.01167839 -39.67649075 10.38017476 -38.21582031 9.74804688 C-36.13530827 8.84788054 -34.05449038 7.94853716 -31.97155762 7.0539856 C-31.33480103 6.78045258 -30.69804443 6.50691956 -30.04199219 6.22509766 C-29.42739513 5.96904503 -28.81279808 5.7129924 -28.17957687 5.4491806 C-26.1180151 4.57097963 -26.1180151 4.57097963 -24.34591293 3.49402428 C-16.69488587 -0.68234851 -8.45299345 -0.04466176 0 0 Z " fill="#F5F5F5" transform="translate(378.0986328125,560.482421875)"/>
<path d="M0 0 C31.68 0 63.36 0 96 0 C96 6.27 96 12.54 96 19 C64.32 19 32.64 19 0 19 C0 12.73 0 6.46 0 0 Z " fill="#FDFDFD" transform="translate(399,523)"/>
<path d="M0 0 C8.14029718 6.74966308 14.7835891 14.67860807 16.75 25.3125 C16.75 27.6225 16.75 29.9325 16.75 32.3125 C10.15 32.3125 3.55 32.3125 -3.25 32.3125 C-3.91 29.3425 -4.57 26.3725 -5.25 23.3125 C-8.34168709 18.54246848 -11.67387426 15.58883647 -17.25 14.3125 C-23.8631877 13.42283349 -29.10020962 13.77274427 -34.59375 17.7578125 C-39.08522943 21.97387102 -40.23201296 26.20457776 -41.25 32.3125 C-47.52 32.3125 -53.79 32.3125 -60.25 32.3125 C-61.33387714 22.09308695 -57.55625998 14.20149037 -51.61328125 6.07421875 C-38.37339751 -8.38386253 -16.09915697 -11.28827608 0 0 Z " fill="#040404" transform="translate(246.25,267.6875)"/>
<path d="M0 0 C4.560154 3.90870343 8.42963071 7.36625634 12.375 11.75 C12.84196289 12.2665918 13.30892578 12.78318359 13.79003906 13.31542969 C14.74116881 14.36872021 15.69041725 15.42371288 16.63769531 16.48046875 C17.90777299 17.89712887 19.18411538 19.30816556 20.4609375 20.71875 C23.79858828 24.40953107 27.1124549 28.11766133 30.375 31.875 C33.82301458 35.83620745 37.37651734 39.69832804 40.93725586 43.55786133 C44.19598341 47.09750394 47.36857222 50.69663959 50.46484375 54.37890625 C52.00907412 56.10912231 52.00907412 56.10912231 54.19140625 57.58984375 C54.78824219 58.05519531 55.38507813 58.52054688 56 59 C56 59.66 56 60.32 56 61 C37.52 61 19.04 61 0 61 C0 40.87 0 20.74 0 0 Z " fill="#F9F9F9" transform="translate(147,520)"/>
<path d="M0 0 C17.12015245 6.25310533 30.24288436 22.09848916 37.7890625 38.12890625 C42.52525928 49.35827603 44.42296159 60.85160321 44 73 C42.27318563 73.50806447 40.54342021 74.00610467 38.8125 74.5 C37.84957031 74.7784375 36.88664062 75.056875 35.89453125 75.34375 C33.13439851 75.96952908 30.81289292 76.04974903 28 76 C21.79898838 60.40960236 16.15427097 44.63281798 10.53222656 28.82617188 C9.35281299 25.51316968 8.1688325 22.20182661 6.984375 18.890625 C6.62809021 17.88437073 6.27180542 16.87811646 5.90472412 15.84136963 C4.18848025 11.04942502 2.32260309 6.53823226 0 2 C0 1.34 0 0.68 0 0 Z " fill="#FBFBFB" transform="translate(231,444)"/>
<path d="M0 0 C19.14 0 38.28 0 58 0 C58 6.6 58 13.2 58 20 C38.86 20 19.72 20 0 20 C0 13.4 0 6.8 0 0 Z " fill="#090909" transform="translate(553,290)"/>
<path d="M0 0 C6.6 0 13.2 0 20 0 C20 19.14 20 38.28 20 58 C13.4 58 6.8 58 0 58 C0 38.86 0 19.72 0 0 Z " fill="#F5F5F5" transform="translate(340,39)"/>
<path d="M0 0 C19.14 0 38.28 0 58 0 C58 6.27 58 12.54 58 19 C38.86 19 19.72 19 0 19 C0 12.73 0 6.46 0 0 Z " fill="#010101" transform="translate(553,252)"/>
<path d="M0 0 C19.14 0 38.28 0 58 0 C58 6.27 58 12.54 58 19 C38.86 19 19.72 19 0 19 C0 12.73 0 6.46 0 0 Z " fill="#010101" transform="translate(553,213)"/>
<path d="M0 0 C6.27 0 12.54 0 19 0 C19 19.14 19 38.28 19 58 C12.73 58 6.46 58 0 58 C0 38.86 0 19.72 0 0 Z " fill="#FDFDFD" transform="translate(573,58)"/>
<path d="M0 0 C6.27 0 12.54 0 19 0 C19 19.14 19 38.28 19 58 C12.73 58 6.46 58 0 58 C0 38.86 0 19.72 0 0 Z " fill="#FEFEFE" transform="translate(418,58)"/>
<path d="M0 0 C6.27 0 12.54 0 19 0 C19 19.14 19 38.28 19 58 C12.73 58 6.46 58 0 58 C0 38.86 0 19.72 0 0 Z " fill="#FBFBFB" transform="translate(495,39)"/>
<path d="M0 0 C6.27 0 12.54 0 19 0 C19 12.54 19 25.08 19 38 C12.73 38 6.46 38 0 38 C0 25.46 0 12.92 0 0 Z " fill="#FDFDFD" transform="translate(573,349)"/>
<path d="M0 0 C11.88 0 23.76 0 36 0 C36 6.27 36 12.54 36 19 C22.77068992 19.44468269 14.69228534 19.06732521 4.6640625 9.73828125 C1.67157308 6.61232399 0 4.36438705 0 0 Z " fill="#FCFCFC" transform="translate(246,368)"/>
<path d="M0 0 C3.70718433 0.81785983 5.13329673 2.33819937 7.16015625 5.4765625 C8.10041499 9.64056549 7.5896965 12.59880634 5.72265625 16.4140625 C2.09717173 19.33213541 -1.2303955 19.91203622 -5.83984375 19.4765625 C-9.3770874 17.41317037 -10.54403897 16.36397685 -11.83984375 12.4765625 C-12.31466806 8.20314371 -12.29688693 6.16949894 -9.90234375 2.5390625 C-6.32643379 0.13079661 -4.23452677 -0.26863442 0 0 Z " fill="#090909" transform="translate(603.83984375,464.5234375)"/>
<path d="M0 0 C3.03978021 0.68164768 4.80055419 2.23591662 6.93359375 4.43359375 C8.34360039 7.25360702 8.17907826 9.3036663 7.93359375 12.43359375 C6.26597053 15.92766144 5.19353353 17.26030056 1.93359375 19.43359375 C-2.27818868 19.90156958 -4.35239739 19.8992517 -7.94140625 17.55859375 C-10.85351283 14.64648717 -11.0270893 13.83331605 -11.44140625 9.62109375 C-11.37967942 6.23229105 -11.05507416 5.41659561 -9.06640625 2.43359375 C-5.71397384 0.19863881 -3.9372435 -0.24561254 0 0 Z " fill="#080808" transform="translate(526.06640625,464.56640625)"/>
<path d="M0 0 C3.69059994 0.87426509 5.13063077 2.36922768 7.16015625 5.51171875 C8.10666867 9.70341662 7.60623459 12.63814867 5.66015625 16.44921875 C2.95111692 18.6841762 0.79838838 19.60395491 -2.734375 19.8359375 C-6.13300949 19.31258562 -8.13758015 17.70753957 -10.54296875 15.32421875 C-11.83984375 13.51171875 -11.83984375 13.51171875 -12.58984375 10.01171875 C-11.01780183 2.67552314 -7.37035725 -0.55369963 0 0 Z " fill="#080808" transform="translate(564.83984375,464.48828125)"/>
<path d="M0 0 C0.66 0.33 1.32 0.66 2 1 C0.38405168 3.04119788 -1.2856382 5.04072937 -3 7 C-3.66 7 -4.32 7 -5 7 C-5 7.66 -5 8.32 -5 9 C-6.32 9.33 -7.64 9.66 -9 10 C-8.06409496 8.8944811 -7.12620142 7.79064547 -6.1875 6.6875 C-5.66542969 6.07261719 -5.14335937 5.45773437 -4.60546875 4.82421875 C-3.12827531 3.14575321 -1.59960869 1.56117966 0 0 Z " fill="#161616" transform="translate(335,491)"/>
</svg>
