<svg width="747" height="742" viewBox="0 0 747 742" fill="none" xmlns="http://www.w3.org/2000/svg">
<path d="M720.747 665.827H76.16V27.0799C76.1548 20.1215 73.384 13.4493 68.4621 8.52794C63.5403 3.60608 56.8684 0.835278 49.9101 0.830078H26.5768C19.6184 0.835286 12.9461 3.60608 8.0248 8.52794C3.10293 13.4498 0.332135 20.1217 0.326935 27.0799V697.907C0.337351 709.506 4.952 720.625 13.1551 728.828C21.3581 737.031 32.4777 741.646 44.0764 741.656H720.743C727.702 741.651 734.374 738.88 739.295 733.958C744.217 729.036 746.988 722.364 746.993 715.406V692.073C746.988 685.114 744.217 678.442 739.295 673.521C734.373 668.599 727.701 665.828 720.743 665.823L720.747 665.827ZM729.497 715.411C729.497 720.244 725.58 724.161 720.747 724.161H44.08C37.1216 724.155 30.4493 721.385 25.528 716.463C20.6061 711.541 17.8353 704.869 17.8301 697.911V27.0841C17.8301 22.2507 21.7468 18.3341 26.5801 18.3341H49.9135C54.7468 18.3341 58.6635 22.2507 58.6635 27.0841V674.577C58.6635 679.411 62.5801 683.327 67.4135 683.327H720.747C725.58 683.327 729.497 687.244 729.497 692.077L729.497 715.411Z" fill="black"/>
<path d="M157.827 397.507C162.66 397.507 166.577 393.59 166.577 388.757V362.506H181.161C190.827 362.506 198.661 354.673 198.661 345.006V216.673C198.661 207.006 190.827 199.173 181.161 199.173H166.577V172.922C166.577 168.089 162.66 164.172 157.827 164.172C152.993 164.172 149.077 168.089 149.077 172.922V199.173H134.493C124.826 199.173 116.993 207.006 116.993 216.673V345.006C116.993 354.673 124.826 362.506 134.493 362.506H149.077V388.757C149.077 393.59 152.993 397.507 157.827 397.507ZM134.493 345.007V216.673H181.16V345.007H134.493Z" fill="black"/>
<path d="M286.173 467.507C291.007 467.507 294.923 463.59 294.923 458.757V432.506H309.507C319.174 432.506 327.007 424.673 327.007 415.006V286.673C327.007 277.006 319.174 269.173 309.507 269.173H294.923V242.922C294.923 238.089 291.007 234.172 286.173 234.172C281.34 234.172 277.423 238.089 277.423 242.922V269.173H262.839C253.173 269.173 245.339 277.006 245.339 286.673V415.006C245.339 424.673 253.173 432.506 262.839 432.506H277.423V458.757C277.423 463.59 281.34 467.507 286.173 467.507ZM262.84 415.007V286.673H309.507V415.007H262.84Z" fill="black"/>
<path d="M414.493 572.493C419.327 572.493 423.243 568.577 423.243 563.743V525.826H437.827C447.494 525.826 455.327 517.993 455.327 508.326V473.326C455.327 463.659 447.494 455.826 437.827 455.826H423.243V417.909C423.243 413.075 419.327 409.159 414.493 409.159C409.66 409.159 405.743 413.075 405.743 417.909V455.826H391.159C381.493 455.826 373.659 463.659 373.659 473.326V508.326C373.659 517.993 381.493 525.826 391.159 525.826H405.743V563.743C405.743 568.577 409.66 572.493 414.493 572.493ZM391.16 508.327V473.327H437.827V508.327H391.16Z" fill="black"/>
<path d="M542.84 490.84C547.673 490.84 551.59 486.923 551.59 482.09V455.839H566.174C575.841 455.839 583.674 448.006 583.674 438.339V286.673C583.674 277.006 575.841 269.173 566.174 269.173H551.59V242.922C551.59 238.089 547.673 234.172 542.84 234.172C538.007 234.172 534.09 238.089 534.09 242.922V269.173H519.506C509.839 269.173 502.006 277.006 502.006 286.673V438.339C502.006 448.006 509.839 455.839 519.506 455.839H534.09V482.09C534.09 486.923 538.007 490.84 542.84 490.84ZM519.507 438.34V286.673H566.173V438.34H519.507Z" fill="black"/>
<path d="M671.16 420.84C675.993 420.84 679.91 416.923 679.91 412.09V385.839H694.494C704.161 385.839 711.994 378.006 711.994 368.339V146.673C711.994 137.006 704.161 129.173 694.494 129.173H679.91V102.922C679.91 98.0887 675.993 94.172 671.16 94.172C666.327 94.172 662.41 98.0887 662.41 102.922V129.173H647.826C638.159 129.173 630.326 137.006 630.326 146.673V368.339C630.326 378.006 638.159 385.839 647.826 385.839H662.41V412.09C662.41 416.923 666.327 420.84 671.16 420.84ZM647.827 368.34V146.673H694.493V368.34H647.827Z" fill="black"/>
</svg>
